<?xml version="1.0" encoding="us-ascii" standalone="no"?><svg xmlns="http://www.w3.org/2000/svg" xmlns:xlink="http://www.w3.org/1999/xlink" contentStyleType="text/css" height="1456px" preserveAspectRatio="none" style="width:955px;height:1456px;background:#FFFFFF;" version="1.1" viewBox="0 0 955 1456" width="955px" zoomAndPan="magnify"><defs/><g><!--class FilesystemNode--><g id="elem_FilesystemNode"><rect codeLine="4" fill="#AAFFFF" height="128.4932" id="FilesystemNode" rx="2.5" ry="2.5" style="stroke:#181818;stroke-width:0.5;" width="248" x="534.5" y="7"/><ellipse cx="603.25" cy="23" fill="#ADD1B2" rx="11" ry="11" style="stroke:#181818;stroke-width:1.0;"/><path d="M600.9063,22.8438 Q600.9063,24.7188 601.4844,25.7344 Q602.0625,26.7344 603.2188,26.7344 Q604.5625,26.7344 605.2188,24.7188 L607.4844,25.1406 Q606.375,28.6719 603.2031,28.6719 Q600.8594,28.6719 599.6406,27.1875 Q598.4219,25.7031 598.4219,22.8438 Q598.4219,17.125 603.125,17.125 Q604.6719,17.125 605.7031,17.9375 Q606.75,18.75 607.25,20.3594 L604.9844,20.9063 Q604.75,20.0313 604.2656,19.5469 Q603.7813,19.0469 603.1563,19.0469 Q600.9063,19.0469 600.9063,22.8438 Z " fill="#000000"/><text fill="#000000" font-family="sans-serif" font-size="14" lengthAdjust="spacing" textLength="102" x="623.75" y="28.0825">FilesystemNode</text><line style="stroke:#181818;stroke-width:0.5;" x1="535.5" x2="781.5" y1="39" y2="39"/><text fill="#000000" font-family="sans-serif" font-size="14" lengthAdjust="spacing" textLength="79" x="540.5" y="56.1318">name: string</text><text fill="#000000" font-family="sans-serif" font-size="14" lengthAdjust="spacing" textLength="236" x="540.5" y="72.2305">accessType: hidden | locked | normal</text><text fill="#000000" font-family="sans-serif" font-size="14" lengthAdjust="spacing" textLength="130" x="540.5" y="88.3291">/absolutePath: string</text><text fill="#000000" font-family="sans-serif" font-size="14" lengthAdjust="spacing" textLength="114" x="540.5" y="104.4277">/isVisible: boolean</text><text fill="#000000" font-family="sans-serif" font-size="14" lengthAdjust="spacing" textLength="134" x="540.5" y="120.5264">/isReadable: boolean</text><line style="stroke:#181818;stroke-width:0.5;" x1="535.5" x2="781.5" y1="127.4932" y2="127.4932"/></g><!--class Directory--><g id="elem_Directory"><rect codeLine="12" fill="#AAFFFF" height="80.1973" id="Directory" rx="2.5" ry="2.5" style="stroke:#181818;stroke-width:0.5;" width="220" x="632.5" y="231"/><ellipse cx="709.75" cy="247" fill="#ADD1B2" rx="11" ry="11" style="stroke:#181818;stroke-width:1.0;"/><path d="M707.4063,246.8438 Q707.4063,248.7188 707.9844,249.7344 Q708.5625,250.7344 709.7188,250.7344 Q711.0625,250.7344 711.7188,248.7188 L713.9844,249.1406 Q712.875,252.6719 709.7031,252.6719 Q707.3594,252.6719 706.1406,251.1875 Q704.9219,249.7031 704.9219,246.8438 Q704.9219,241.125 709.625,241.125 Q711.1719,241.125 712.2031,241.9375 Q713.25,242.75 713.75,244.3594 L711.4844,244.9063 Q711.25,244.0313 710.7656,243.5469 Q710.2813,243.0469 709.6563,243.0469 Q707.4063,243.0469 707.4063,246.8438 Z " fill="#000000"/><text fill="#000000" font-family="sans-serif" font-size="14" lengthAdjust="spacing" textLength="57" x="730.25" y="252.0825">Directory</text><line style="stroke:#181818;stroke-width:0.5;" x1="633.5" x2="851.5" y1="263" y2="263"/><line style="stroke:#181818;stroke-width:0.5;" x1="633.5" x2="851.5" y1="271" y2="271"/><text fill="#000000" font-family="sans-serif" font-size="14" lengthAdjust="spacing" textLength="179" x="638.5" y="288.1318">getChildrenNames(): string[]</text><text fill="#000000" font-family="sans-serif" font-size="14" lengthAdjust="spacing" textLength="208" x="638.5" y="304.2305">getChild(name): FilesystemNode</text></g><!--class RootDirectory--><g id="elem_RootDirectory"><rect codeLine="18" fill="#AAFFFF" height="48" id="RootDirectory" rx="2.5" ry="2.5" style="stroke:#181818;stroke-width:0.5;" width="119" x="521" y="432"/><ellipse cx="536" cy="448" fill="#ADD1B2" rx="11" ry="11" style="stroke:#181818;stroke-width:1.0;"/><path d="M533.6563,447.8438 Q533.6563,449.7188 534.2344,450.7344 Q534.8125,451.7344 535.9688,451.7344 Q537.3125,451.7344 537.9688,449.7188 L540.2344,450.1406 Q539.125,453.6719 535.9531,453.6719 Q533.6094,453.6719 532.3906,452.1875 Q531.1719,450.7031 531.1719,447.8438 Q531.1719,442.125 535.875,442.125 Q537.4219,442.125 538.4531,442.9375 Q539.5,443.75 540,445.3594 L537.7344,445.9063 Q537.5,445.0313 537.0156,444.5469 Q536.5313,444.0469 535.9063,444.0469 Q533.6563,444.0469 533.6563,447.8438 Z " fill="#000000"/><text fill="#000000" font-family="sans-serif" font-size="14" lengthAdjust="spacing" textLength="87" x="550" y="453.0825">RootDirectory</text><line style="stroke:#181818;stroke-width:0.5;" x1="522" x2="639" y1="464" y2="464"/><line style="stroke:#181818;stroke-width:0.5;" x1="522" x2="639" y1="472" y2="472"/></g><!--class File--><g id="elem_File"><rect codeLine="26" fill="#AAFFFF" height="128.4932" id="File" rx="2.5" ry="2.5" style="stroke:#181818;stroke-width:0.5;" width="294" x="191.5" y="392"/><ellipse cx="322.75" cy="408" fill="#ADD1B2" rx="11" ry="11" style="stroke:#181818;stroke-width:1.0;"/><path d="M320.4063,407.8438 Q320.4063,409.7188 320.9844,410.7344 Q321.5625,411.7344 322.7188,411.7344 Q324.0625,411.7344 324.7188,409.7188 L326.9844,410.1406 Q325.875,413.6719 322.7031,413.6719 Q320.3594,413.6719 319.1406,412.1875 Q317.9219,410.7031 317.9219,407.8438 Q317.9219,402.125 322.625,402.125 Q324.1719,402.125 325.2031,402.9375 Q326.25,403.75 326.75,405.3594 L324.4844,405.9063 Q324.25,405.0313 323.7656,404.5469 Q323.2813,404.0469 322.6563,404.0469 Q320.4063,404.0469 320.4063,407.8438 Z " fill="#000000"/><text fill="#000000" font-family="sans-serif" font-size="14" lengthAdjust="spacing" textLength="23" x="343.25" y="413.0825">File</text><line style="stroke:#181818;stroke-width:0.5;" x1="192.5" x2="484.5" y1="424" y2="424"/><text fill="#000000" font-family="sans-serif" font-size="14" lengthAdjust="spacing" textLength="282" x="197.5" y="441.1318">permissions: read-only | read-write | execute</text><line style="stroke:#181818;stroke-width:0.5;" x1="192.5" x2="484.5" y1="448.0986" y2="448.0986"/><text fill="#000000" font-family="sans-serif" font-size="14" lengthAdjust="spacing" textLength="82" x="197.5" y="465.2305">read(): string</text><text fill="#000000" font-family="sans-serif" font-size="14" lengthAdjust="spacing" textLength="204" x="197.5" y="481.3291">write(content) / append(content)</text><text fill="#000000" font-family="sans-serif" font-size="14" lengthAdjust="spacing" textLength="203" x="197.5" y="497.4277">execute(processProxy): number</text><text fill="#000000" font-family="sans-serif" font-size="14" lengthAdjust="spacing" textLength="223" x="197.5" y="513.5264">handleSignal(processProxy, signal)</text></g><!--class TextFile--><g id="elem_TextFile"><rect codeLine="35" fill="#AAFFFF" height="64.0986" id="TextFile" rx="2.5" ry="2.5" style="stroke:#181818;stroke-width:0.5;" width="102" x="477.5" y="648"/><ellipse cx="501.05" cy="664" fill="#ADD1B2" rx="11" ry="11" style="stroke:#181818;stroke-width:1.0;"/><path d="M498.7063,663.8438 Q498.7063,665.7188 499.2844,666.7344 Q499.8625,667.7344 501.0188,667.7344 Q502.3625,667.7344 503.0188,665.7188 L505.2844,666.1406 Q504.175,669.6719 501.0031,669.6719 Q498.6594,669.6719 497.4406,668.1875 Q496.2219,666.7031 496.2219,663.8438 Q496.2219,658.125 500.925,658.125 Q502.4719,658.125 503.5031,658.9375 Q504.55,659.75 505.05,661.3594 L502.7844,661.9063 Q502.55,661.0313 502.0656,660.5469 Q501.5813,660.0469 500.9563,660.0469 Q498.7063,660.0469 498.7063,663.8438 Z " fill="#000000"/><text fill="#000000" font-family="sans-serif" font-size="14" lengthAdjust="spacing" textLength="51" x="516.95" y="669.0825">TextFile</text><line style="stroke:#181818;stroke-width:0.5;" x1="478.5" x2="578.5" y1="680" y2="680"/><text fill="#000000" font-family="sans-serif" font-size="14" lengthAdjust="spacing" textLength="90" x="483.5" y="697.1318">content: string</text><line style="stroke:#181818;stroke-width:0.5;" x1="478.5" x2="578.5" y1="704.0986" y2="704.0986"/></g><!--class BinaryFile--><g id="elem_BinaryFile"><rect codeLine="40" fill="#AAFFFF" height="80.1973" id="BinaryFile" rx="2.5" ry="2.5" style="stroke:#181818;stroke-width:0.5;" width="208" x="234.5" y="640"/><ellipse cx="302.75" cy="656" fill="#ADD1B2" rx="11" ry="11" style="stroke:#181818;stroke-width:1.0;"/><path d="M300.4063,655.8438 Q300.4063,657.7188 300.9844,658.7344 Q301.5625,659.7344 302.7188,659.7344 Q304.0625,659.7344 304.7188,657.7188 L306.9844,658.1406 Q305.875,661.6719 302.7031,661.6719 Q300.3594,661.6719 299.1406,660.1875 Q297.9219,658.7031 297.9219,655.8438 Q297.9219,650.125 302.625,650.125 Q304.1719,650.125 305.2031,650.9375 Q306.25,651.75 306.75,653.3594 L304.4844,653.9063 Q304.25,653.0313 303.7656,652.5469 Q303.2813,652.0469 302.6563,652.0469 Q300.4063,652.0469 300.4063,655.8438 Z " fill="#000000"/><text fill="#000000" font-family="sans-serif" font-size="14" lengthAdjust="spacing" textLength="63" x="323.25" y="661.0825">BinaryFile</text><line style="stroke:#181818;stroke-width:0.5;" x1="235.5" x2="441.5" y1="672" y2="672"/><text fill="#000000" font-family="sans-serif" font-size="14" lengthAdjust="spacing" textLength="145" x="240.5" y="689.1318">executeFn: Executable</text><text fill="#000000" font-family="sans-serif" font-size="14" lengthAdjust="spacing" textLength="196" x="240.5" y="705.2305">handleSignalFn: SignalHandler</text><line style="stroke:#181818;stroke-width:0.5;" x1="235.5" x2="441.5" y1="712.1973" y2="712.1973"/></g><!--class DeviceFile--><g id="elem_DeviceFile"><rect codeLine="46" fill="#AAFFFF" height="80.1973" id="DeviceFile" rx="2.5" ry="2.5" style="stroke:#181818;stroke-width:0.5;" width="121" x="7" y="640"/><ellipse cx="32.35" cy="656" fill="#ADD1B2" rx="11" ry="11" style="stroke:#181818;stroke-width:1.0;"/><path d="M30.0063,655.8438 Q30.0063,657.7188 30.5844,658.7344 Q31.1625,659.7344 32.3188,659.7344 Q33.6625,659.7344 34.3188,657.7188 L36.5844,658.1406 Q35.475,661.6719 32.3031,661.6719 Q29.9594,661.6719 28.7406,660.1875 Q27.5219,658.7031 27.5219,655.8438 Q27.5219,650.125 32.225,650.125 Q33.7719,650.125 34.8031,650.9375 Q35.85,651.75 36.35,653.3594 L34.0844,653.9063 Q33.85,653.0313 33.3656,652.5469 Q32.8813,652.0469 32.2563,652.0469 Q30.0063,652.0469 30.0063,655.8438 Z " fill="#000000"/><text fill="#000000" font-family="sans-serif" font-size="14" lengthAdjust="spacing" textLength="66" x="48.65" y="661.0825">DeviceFile</text><line style="stroke:#181818;stroke-width:0.5;" x1="8" x2="127" y1="672" y2="672"/><text fill="#000000" font-family="sans-serif" font-size="14" lengthAdjust="spacing" textLength="109" x="13" y="689.1318">onRead: ReadFn</text><text fill="#000000" font-family="sans-serif" font-size="14" lengthAdjust="spacing" textLength="107" x="13" y="705.2305">onWrite: WriteFn</text><line style="stroke:#181818;stroke-width:0.5;" x1="8" x2="127" y1="712.1973" y2="712.1973"/></g><!--class ExecutionContext--><g id="elem_ExecutionContext"><rect codeLine="53" fill="#F1F1F1" height="128.4932" id="ExecutionContext" rx="2.5" ry="2.5" style="stroke:#181818;stroke-width:0.5;" width="235" x="615" y="616"/><ellipse cx="672.75" cy="632" fill="#ADD1B2" rx="11" ry="11" style="stroke:#181818;stroke-width:1.0;"/><path d="M670.4063,631.8438 Q670.4063,633.7188 670.9844,634.7344 Q671.5625,635.7344 672.7188,635.7344 Q674.0625,635.7344 674.7188,633.7188 L676.9844,634.1406 Q675.875,637.6719 672.7031,637.6719 Q670.3594,637.6719 669.1406,636.1875 Q667.9219,634.7031 667.9219,631.8438 Q667.9219,626.125 672.625,626.125 Q674.1719,626.125 675.2031,626.9375 Q676.25,627.75 676.75,629.3594 L674.4844,629.9063 Q674.25,629.0313 673.7656,628.5469 Q673.2813,628.0469 672.6563,628.0469 Q670.4063,628.0469 670.4063,631.8438 Z " fill="#000000"/><text fill="#000000" font-family="sans-serif" font-size="14" lengthAdjust="spacing" textLength="111" x="693.25" y="637.0825">ExecutionContext</text><line style="stroke:#181818;stroke-width:0.5;" x1="616" x2="849" y1="648" y2="648"/><line style="stroke:#181818;stroke-width:0.5;" x1="616" x2="849" y1="656" y2="656"/><text fill="#000000" font-family="sans-serif" font-size="14" lengthAdjust="spacing" textLength="223" x="621" y="673.1318">resolvePath(path): FilesystemNode</text><text fill="#000000" font-family="sans-serif" font-size="14" lengthAdjust="spacing" textLength="142" x="621" y="689.2305">changeDirectory(path)</text><text fill="#000000" font-family="sans-serif" font-size="14" lengthAdjust="spacing" textLength="164" x="621" y="705.3291">getFileStream(index): File</text><text fill="#000000" font-family="sans-serif" font-size="14" lengthAdjust="spacing" textLength="158" x="621" y="721.4277">setFileStream(index, file)</text><text fill="#000000" font-family="sans-serif" font-size="14" lengthAdjust="spacing" textLength="148" x="621" y="737.5264">createPipe(): [File, File]</text></g><!--class Process--><g id="elem_Process"><rect codeLine="66" fill="#F1F1F1" height="112.3945" id="Process" rx="2.5" ry="2.5" style="stroke:#181818;stroke-width:0.5;" width="129" x="300" y="1337"/><ellipse cx="335.7" cy="1353" fill="#ADD1B2" rx="11" ry="11" style="stroke:#181818;stroke-width:1.0;"/><path d="M333.3563,1352.8438 Q333.3563,1354.7188 333.9344,1355.7344 Q334.5125,1356.7344 335.6688,1356.7344 Q337.0125,1356.7344 337.6688,1354.7188 L339.9344,1355.1406 Q338.825,1358.6719 335.6531,1358.6719 Q333.3094,1358.6719 332.0906,1357.1875 Q330.8719,1355.7031 330.8719,1352.8438 Q330.8719,1347.125 335.575,1347.125 Q337.1219,1347.125 338.1531,1347.9375 Q339.2,1348.75 339.7,1350.3594 L337.4344,1350.9063 Q337.2,1350.0313 336.7156,1349.5469 Q336.2313,1349.0469 335.6063,1349.0469 Q333.3563,1349.0469 333.3563,1352.8438 Z " fill="#000000"/><text fill="#000000" font-family="sans-serif" font-size="14" lengthAdjust="spacing" textLength="51" x="354.3" y="1358.0825">Process</text><line style="stroke:#181818;stroke-width:0.5;" x1="301" x2="428" y1="1369" y2="1369"/><text fill="#000000" font-family="sans-serif" font-size="14" lengthAdjust="spacing" textLength="76" x="306" y="1386.1318">pid: number</text><line style="stroke:#181818;stroke-width:0.5;" x1="301" x2="428" y1="1393.0986" y2="1393.0986"/><text fill="#000000" font-family="sans-serif" font-size="14" lengthAdjust="spacing" textLength="66" x="306" y="1410.2305">start(args)</text><text fill="#000000" font-family="sans-serif" font-size="14" lengthAdjust="spacing" textLength="90" x="306" y="1426.3291">waitToFinish()</text><text fill="#000000" font-family="sans-serif" font-size="14" lengthAdjust="spacing" textLength="117" x="306" y="1442.4277">sendSignal(signal)</text></g><!--class ProcessProxy--><g id="elem_ProcessProxy"><rect codeLine="85" fill="#F1F1F1" height="192.8877" id="ProcessProxy" rx="2.5" ry="2.5" style="stroke:#181818;stroke-width:0.5;" width="266" x="246.5" y="840"/><ellipse cx="331.75" cy="856" fill="#ADD1B2" rx="11" ry="11" style="stroke:#181818;stroke-width:1.0;"/><path d="M329.4063,855.8438 Q329.4063,857.7188 329.9844,858.7344 Q330.5625,859.7344 331.7188,859.7344 Q333.0625,859.7344 333.7188,857.7188 L335.9844,858.1406 Q334.875,861.6719 331.7031,861.6719 Q329.3594,861.6719 328.1406,860.1875 Q326.9219,858.7031 326.9219,855.8438 Q326.9219,850.125 331.625,850.125 Q333.1719,850.125 334.2031,850.9375 Q335.25,851.75 335.75,853.3594 L333.4844,853.9063 Q333.25,853.0313 332.7656,852.5469 Q332.2813,852.0469 331.6563,852.0469 Q329.4063,852.0469 329.4063,855.8438 Z " fill="#000000"/><text fill="#000000" font-family="sans-serif" font-size="14" lengthAdjust="spacing" textLength="87" x="352.25" y="861.0825">ProcessProxy</text><line style="stroke:#181818;stroke-width:0.5;" x1="247.5" x2="511.5" y1="872" y2="872"/><text fill="#000000" font-family="sans-serif" font-size="14" lengthAdjust="spacing" textLength="108" x="252.5" y="889.1318">pid = process.pid</text><line style="stroke:#181818;stroke-width:0.5;" x1="247.5" x2="511.5" y1="896.0986" y2="896.0986"/><text fill="#000000" font-family="sans-serif" font-size="14" lengthAdjust="spacing" textLength="207" x="252.5" y="913.2305">/stdin = context.getFileStream(0)</text><text fill="#000000" font-family="sans-serif" font-size="14" lengthAdjust="spacing" textLength="216" x="252.5" y="929.3291">/stdout = context.getFileStream(1)</text><text fill="#000000" font-family="sans-serif" font-size="14" lengthAdjust="spacing" textLength="214" x="252.5" y="945.4277">/stderr = context.getFileStream(2)</text><text fill="#000000" font-family="sans-serif" font-size="14" lengthAdjust="spacing" textLength="223" x="252.5" y="961.5264">resolvePath(path): FilesystemNode</text><text fill="#000000" font-family="sans-serif" font-size="14" lengthAdjust="spacing" textLength="142" x="252.5" y="977.625">changeDirectory(path)</text><text fill="#000000" font-family="sans-serif" font-size="14" lengthAdjust="spacing" textLength="254" x="252.5" y="993.7236">execute(file, args, background): number</text><text fill="#000000" font-family="sans-serif" font-size="14" lengthAdjust="spacing" textLength="109" x="252.5" y="1009.8223">waitToFinish(pid)</text><text fill="#000000" font-family="sans-serif" font-size="14" lengthAdjust="spacing" textLength="144" x="252.5" y="1025.9209">sendSignal(pid, signal)</text></g><!--class ProcessPool--><g id="elem_ProcessPool"><rect codeLine="75" fill="#F1F1F1" height="112.3945" id="ProcessPool" rx="2.5" ry="2.5" style="stroke:#181818;stroke-width:0.5;" width="209" x="463" y="1129"/><ellipse cx="523.75" cy="1145" fill="#ADD1B2" rx="11" ry="11" style="stroke:#181818;stroke-width:1.0;"/><path d="M521.4063,1144.8438 Q521.4063,1146.7188 521.9844,1147.7344 Q522.5625,1148.7344 523.7188,1148.7344 Q525.0625,1148.7344 525.7188,1146.7188 L527.9844,1147.1406 Q526.875,1150.6719 523.7031,1150.6719 Q521.3594,1150.6719 520.1406,1149.1875 Q518.9219,1147.7031 518.9219,1144.8438 Q518.9219,1139.125 523.625,1139.125 Q525.1719,1139.125 526.2031,1139.9375 Q527.25,1140.75 527.75,1142.3594 L525.4844,1142.9063 Q525.25,1142.0313 524.7656,1141.5469 Q524.2813,1141.0469 523.6563,1141.0469 Q521.4063,1141.0469 521.4063,1144.8438 Z " fill="#000000"/><text fill="#000000" font-family="sans-serif" font-size="14" lengthAdjust="spacing" textLength="79" x="544.25" y="1150.0825">ProcessPool</text><line style="stroke:#181818;stroke-width:0.5;" x1="464" x2="671" y1="1161" y2="1161"/><text fill="#000000" font-family="sans-serif" font-size="14" lengthAdjust="spacing" textLength="104" x="469" y="1178.1318">nextPid: number</text><line style="stroke:#181818;stroke-width:0.5;" x1="464" x2="671" y1="1185.0986" y2="1185.0986"/><text fill="#000000" font-family="sans-serif" font-size="14" lengthAdjust="spacing" textLength="197" x="469" y="1202.2305">startProcess(context, file, args)</text><text fill="#000000" font-family="sans-serif" font-size="14" lengthAdjust="spacing" textLength="109" x="469" y="1218.3291">waitToFinish(pid)</text><text fill="#000000" font-family="sans-serif" font-size="14" lengthAdjust="spacing" textLength="144" x="469" y="1234.4277">sendSignal(pid, signal)</text></g><!--class Unix--><g id="elem_Unix"><rect codeLine="102" fill="#F1F1F1" height="96.2959" id="Unix" rx="2.5" ry="2.5" style="stroke:#181818;stroke-width:0.5;" width="202" x="509.5" y="1345"/><ellipse cx="592.25" cy="1361" fill="#ADD1B2" rx="11" ry="11" style="stroke:#181818;stroke-width:1.0;"/><path d="M589.9063,1360.8438 Q589.9063,1362.7188 590.4844,1363.7344 Q591.0625,1364.7344 592.2188,1364.7344 Q593.5625,1364.7344 594.2188,1362.7188 L596.4844,1363.1406 Q595.375,1366.6719 592.2031,1366.6719 Q589.8594,1366.6719 588.6406,1365.1875 Q587.4219,1363.7031 587.4219,1360.8438 Q587.4219,1355.125 592.125,1355.125 Q593.6719,1355.125 594.7031,1355.9375 Q595.75,1356.75 596.25,1358.3594 L593.9844,1358.9063 Q593.75,1358.0313 593.2656,1357.5469 Q592.7813,1357.0469 592.1563,1357.0469 Q589.9063,1357.0469 589.9063,1360.8438 Z " fill="#000000"/><text fill="#000000" font-family="sans-serif" font-size="14" lengthAdjust="spacing" textLength="28" x="612.75" y="1366.0825">Unix</text><line style="stroke:#181818;stroke-width:0.5;" x1="510.5" x2="710.5" y1="1377" y2="1377"/><text fill="#000000" font-family="sans-serif" font-size="14" lengthAdjust="spacing" textLength="153" x="515.5" y="1394.1318">startupCommand: string</text><text fill="#000000" font-family="sans-serif" font-size="14" lengthAdjust="spacing" textLength="190" x="515.5" y="1410.2305">startupCommandArgs: string[]</text><line style="stroke:#181818;stroke-width:0.5;" x1="510.5" x2="710.5" y1="1417.1973" y2="1417.1973"/><text fill="#000000" font-family="sans-serif" font-size="14" lengthAdjust="spacing" textLength="38" x="515.5" y="1434.3291">start()</text></g><!--reverse link FilesystemNode to Directory--><g id="link_FilesystemNode_Directory"><path codeLine="16" d="M730.4067,149.9212 C739.2067,162.2512 736.5,161.06 741.5,175 C747.79,192.54 748.73,213.11 747.8,230.61 " fill="none" id="FilesystemNode-backto-Directory" style="stroke:#181818;stroke-width:1.0;"/><polygon fill="none" points="719.95,135.27,725.5229,153.4068,735.2904,146.4357,719.95,135.27" style="stroke:#181818;stroke-width:1.0;"/></g><!--link FilesystemNode to Directory--><g id="link_FilesystemNode_Directory"><path codeLine="23" d="M610.9151,140.8354 C603.1951,159.2954 602.73,173.63 612.5,191 C621.5,207 625.3665,213.238 640.5465,223.888 " fill="none" id="FilesystemNode-Directory" style="stroke:#181818;stroke-width:1.0;"/><polygon fill="#181818" points="613.23,135.3,606.0673,142.0599,611.3009,139.9129,613.4479,145.1464,613.23,135.3" style="stroke:#181818;stroke-width:1.0;"/><polygon fill="#181818" points="650.37,230.78,647.7556,224.0595,640.5465,223.888,643.1609,230.6085,650.37,230.78" style="stroke:#181818;stroke-width:1.0;"/><text fill="#000000" font-family="sans-serif" font-size="13" lengthAdjust="spacing" textLength="45" x="613.5" y="188.1938">children</text><text fill="#000000" font-family="sans-serif" font-size="13" lengthAdjust="spacing" textLength="5" x="602.7066" y="155.7642">*</text></g><!--link FilesystemNode to Directory--><g id="link_FilesystemNode_Directory"><path codeLine="24" d="M675.1,135.09 C680.73,153.45 687.62,173.31 695.5,191 C701.47,204.41 706.1208,213.2524 713.6008,225.6524 " fill="none" id="FilesystemNode-to-Directory" style="stroke:#181818;stroke-width:1.0;"/><polygon fill="#181818" points="716.7,230.79,715.4764,221.0175,714.1174,226.5086,708.6262,225.1497,716.7,230.79" style="stroke:#181818;stroke-width:1.0;"/><text fill="#000000" font-family="sans-serif" font-size="13" lengthAdjust="spacing" textLength="36" x="696.5" y="188.1938">parent</text><text fill="#000000" font-family="sans-serif" font-size="13" lengthAdjust="spacing" textLength="7" x="704.2978" y="220.3488">1</text></g><!--reverse link Directory to RootDirectory--><g id="link_Directory_RootDirectory"><path codeLine="20" d="M695.8192,324.738 C663.2792,361.498 627.69,401.69 600.88,431.97 " fill="none" id="Directory-backto-RootDirectory" style="stroke:#181818;stroke-width:1.0;"/><polygon fill="none" points="707.75,311.26,691.3266,320.7611,700.3119,328.7149,707.75,311.26" style="stroke:#181818;stroke-width:1.0;"/></g><!--link RootDirectory to RootDirectory--><g id="link_RootDirectory_RootDirectory"><path codeLine="21" d="M640.02,436.5 C659.5,436.6 675,443.1 675,456 C675,468.9 665.4999,475.3692 646.0199,475.4692 " fill="none" id="RootDirectory-to-RootDirectory" style="stroke:#181818;stroke-width:1.0;"/><polygon fill="#181818" points="640.02,475.5,649.0404,479.4537,645.0199,475.4743,648.9993,471.4539,640.02,475.5" style="stroke:#181818;stroke-width:1.0;"/><text fill="#000000" font-family="sans-serif" font-size="13" lengthAdjust="spacing" textLength="36" x="681" y="461.1938">parent</text></g><!--reverse link FilesystemNode to File--><g id="link_FilesystemNode_File"><path codeLine="33" d="M594.1189,149.0532 C534.7389,220.1232 450.46,321 391.15,391.98 " fill="none" id="FilesystemNode-backto-File" style="stroke:#181818;stroke-width:1.0;"/><polygon fill="none" points="605.66,135.24,589.5145,145.2061,598.7233,152.9002,605.66,135.24" style="stroke:#181818;stroke-width:1.0;"/></g><!--reverse link File to TextFile--><g id="link_File_TextFile"><path codeLine="38" d="M404.1429,533.6963 C439.9029,575.4863 473.59,614.84 501.84,647.85 " fill="none" id="File-backto-TextFile" style="stroke:#181818;stroke-width:1.0;"/><polygon fill="none" points="392.44,520.02,399.5841,537.5973,408.7017,529.7953,392.44,520.02" style="stroke:#181818;stroke-width:1.0;"/></g><!--reverse link File to BinaryFile--><g id="link_File_BinaryFile"><path codeLine="44" d="M338.5,538.02 C338.5,576.61 338.5,606.77 338.5,639.91 " fill="none" id="File-backto-BinaryFile" style="stroke:#181818;stroke-width:1.0;"/><polygon fill="none" points="338.5,520.02,332.5,538.02,344.5,538.02,338.5,520.02" style="stroke:#181818;stroke-width:1.0;"/></g><!--reverse link File to DeviceFile--><g id="link_File_DeviceFile"><path codeLine="50" d="M194.516,529.76 C175.396,541.71 171.9,545.52 155.5,560 C129.5,582.96 106.45,614.8 90.47,639.76 " fill="none" id="File-backto-DeviceFile" style="stroke:#181818;stroke-width:1.0;"/><polygon fill="none" points="209.78,520.22,191.336,524.672,197.696,534.848,209.78,520.22" style="stroke:#181818;stroke-width:1.0;"/></g><!--reverse link File to ExecutionContext--><g id="link_File_ExecutionContext"><path codeLine="61" d="M455.5772,522.9655 C508.8172,552.9655 567.1,585.8 620.37,615.82 " fill="none" id="File-backto-ExecutionContext" style="stroke:#181818;stroke-width:1.0;"/><polygon fill="#181818" points="450.35,520.02,456.2272,527.9231,454.706,522.4746,460.1545,520.9534,450.35,520.02" style="stroke:#181818;stroke-width:1.0;"/><text fill="#000000" font-family="sans-serif" font-size="13" lengthAdjust="spacing" textLength="66" x="548.5" y="573.1938">fileStreams</text><text fill="#000000" font-family="sans-serif" font-size="13" lengthAdjust="spacing" textLength="5" x="458.677" y="540.8972">*</text></g><!--reverse link RootDirectory to ExecutionContext--><g id="link_RootDirectory_ExecutionContext"><path codeLine="62" d="M599.8697,485.2908 C621.6697,517.1308 658.17,570.43 689.13,615.66 " fill="none" id="RootDirectory-backto-ExecutionContext" style="stroke:#181818;stroke-width:1.0;"/><polygon fill="#181818" points="596.48,480.34,598.264,490.0259,599.3047,484.4656,604.865,485.5064,596.48,480.34" style="stroke:#181818;stroke-width:1.0;"/><text fill="#000000" font-family="sans-serif" font-size="13" lengthAdjust="spacing" textLength="74" x="661.5" y="573.1938">rootDirectory</text><text fill="#000000" font-family="sans-serif" font-size="13" lengthAdjust="spacing" textLength="7" x="592.522" y="500.2886">1</text></g><!--reverse link Directory to ExecutionContext--><g id="link_Directory_ExecutionContext"><path codeLine="63" d="M744.6281,317.3849 C747.0281,375.3849 750.01,481.16 744.5,576 C743.75,588.94 742.47,602.75 741.02,615.91 " fill="none" id="Directory-backto-ExecutionContext" style="stroke:#181818;stroke-width:1.0;"/><polygon fill="#181818" points="744.38,311.39,740.7555,320.5477,744.5867,316.3857,748.7487,320.2169,744.38,311.39" style="stroke:#181818;stroke-width:1.0;"/><text fill="#000000" font-family="sans-serif" font-size="13" lengthAdjust="spacing" textLength="84" x="748.5" y="461.1938">homeDirectory</text><text fill="#000000" font-family="sans-serif" font-size="13" lengthAdjust="spacing" textLength="7" x="737.1117" y="331.495">1</text></g><!--reverse link Directory to ExecutionContext--><g id="link_Directory_ExecutionContext"><path codeLine="64" d="M791.0222,315.5623 C811.9122,337.0523 830.45,361.24 841.5,392 C860.73,445.54 858.34,465.66 841.5,520 C830.8,554.53 809.73,588.22 788.94,615.64 " fill="none" id="Directory-backto-ExecutionContext-1" style="stroke:#181818;stroke-width:1.0;"/><polygon fill="#181818" points="786.84,311.26,790.2451,320.5015,790.3251,314.8452,795.9814,314.9253,786.84,311.26" style="stroke:#181818;stroke-width:1.0;"/><text fill="#000000" font-family="sans-serif" font-size="13" lengthAdjust="spacing" textLength="92" x="855.5" y="461.1938">currentDirectory</text><text fill="#000000" font-family="sans-serif" font-size="13" lengthAdjust="spacing" textLength="7" x="786.6041" y="331.3435">1</text></g><!--reverse link File to Process--><g id="link_File_Process"><path codeLine="73" d="M258.088,524.6031 C218.088,565.1831 181.5,617.4 181.5,679 C181.5,679 181.5,679 181.5,1186 C181.5,1259.43 247.29,1318.87 299.98,1354.69 " fill="none" id="File-backto-Process" style="stroke:#181818;stroke-width:1.0;"/><polygon fill="#181818" points="262.3,520.33,253.1333,523.9316,258.79,523.8909,258.8307,529.5476,262.3,520.33" style="stroke:#181818;stroke-width:1.0;"/><text fill="#000000" font-family="sans-serif" font-size="13" lengthAdjust="spacing" textLength="17" x="182.5" y="941.6938">file</text></g><!--link BinaryFile to ProcessProxy--><g id="link_BinaryFile_ProcessProxy"><path codeLine="74" d="M344.82,720.21 C349.95,752.07 356.4553,792.4464 363.1453,833.9564 " fill="none" id="BinaryFile-to-ProcessProxy" style="stroke:#181818;stroke-width:1.0;stroke-dasharray:7.0,7.0;"/><polygon fill="#181818" points="364.1,839.88,366.617,830.3582,363.3044,834.9437,358.7189,831.6311,364.1,839.88" style="stroke:#181818;stroke-width:1.0;"/><text fill="#000000" font-family="sans-serif" font-size="13" lengthAdjust="spacing" textLength="109" x="358.5" y="797.1938">&#171;executable uses&#187;</text></g><!--link ProcessPool to Process--><g id="link_ProcessPool_Process"><path codeLine="81" d="M504.6771,1249.7472 C475.5471,1279.3072 452.4115,1302.7864 423.2615,1332.3664 " fill="none" id="ProcessPool-Process" style="stroke:#181818;stroke-width:1.0;"/><polygon fill="#181818" points="513.1,1241.2,506.0395,1242.666,504.6771,1249.7472,511.7376,1248.2812,513.1,1241.2" style="stroke:#181818;stroke-width:1.0;"/><polygon fill="#181818" points="419.05,1336.64,428.2163,1333.0373,422.5596,1333.0787,422.5181,1327.422,419.05,1336.64" style="stroke:#181818;stroke-width:1.0;"/><text fill="#000000" font-family="sans-serif" font-size="13" lengthAdjust="spacing" textLength="5" x="421.0442" y="1326.3571">*</text></g><!--reverse link ExecutionContext to ProcessProxy--><g id="link_ExecutionContext_ProcessProxy"><path codeLine="96" d="M639.9228,747.7487 C599.9028,776.5987 556.51,807.88 512.19,839.84 " fill="none" id="ExecutionContext-backto-ProcessProxy" style="stroke:#181818;stroke-width:1.0;"/><polygon fill="#181818" points="644.79,744.24,635.1502,746.2583,640.734,747.1639,639.8284,752.7478,644.79,744.24" style="stroke:#181818;stroke-width:1.0;"/><text fill="#000000" font-family="sans-serif" font-size="13" lengthAdjust="spacing" textLength="43" x="589.5" y="797.1938">context</text></g><!--link ProcessProxy to Process--><g id="link_ProcessProxy_Process"><path codeLine="97" d="M376.35,1033.06 C373.3,1125.23 369.0082,1255.5333 366.5182,1330.8833 " fill="none" id="ProcessProxy-to-Process" style="stroke:#181818;stroke-width:1.0;"/><polygon fill="#181818" points="366.32,1336.88,370.6151,1328.017,366.4851,1331.8827,362.6194,1327.7528,366.32,1336.88" style="stroke:#181818;stroke-width:1.0;"/><text fill="#000000" font-family="sans-serif" font-size="13" lengthAdjust="spacing" textLength="46" x="374.5" y="1190.1938">process</text></g><!--link ProcessProxy to Process--><g id="link_ProcessProxy_Process"><path codeLine="99" d="M347.1337,1039.2365 C338.8437,1069.4765 332.63,1097.44 328.5,1129 C322.04,1178.36 322.69,1191.56 328.5,1241 C332.29,1273.25 337.3782,1297.0105 344.9982,1325.3905 " fill="none" id="ProcessProxy-Process" style="stroke:#181818;stroke-width:1.0;"/><polygon fill="#181818" points="348.72,1033.45,342.4829,1041.0722,347.3981,1038.2721,350.1982,1043.1873,348.72,1033.45" style="stroke:#181818;stroke-width:1.0;"/><polygon fill="#181818" points="348.11,1336.98,350.4173,1330.148,344.9982,1325.3905,342.6909,1332.2225,348.11,1336.98" style="stroke:#181818;stroke-width:1.0;"/><text fill="#000000" font-family="sans-serif" font-size="13" lengthAdjust="spacing" textLength="32" x="329.5" y="1190.1938">proxy</text></g><!--link ProcessProxy to ProcessPool--><g id="link_ProcessProxy_ProcessPool"><path codeLine="98" d="M452.45,1033.16 C477.12,1065.5 500.1905,1095.7499 521.6605,1123.8899 " fill="none" id="ProcessProxy-to-ProcessPool" style="stroke:#181818;stroke-width:1.0;"/><polygon fill="#181818" points="525.3,1128.66,523.0209,1119.0785,522.2671,1124.6849,516.6607,1123.9311,525.3,1128.66" style="stroke:#181818;stroke-width:1.0;"/><text fill="#000000" font-family="sans-serif" font-size="13" lengthAdjust="spacing" textLength="24" x="491.5" y="1086.1938">pool</text></g><!--reverse link ProcessPool to Unix--><g id="link_ProcessPool_Unix"><path codeLine="107" d="M580.2456,1247.0735 C586.9856,1279.3735 594.19,1313.86 600.62,1344.69 " fill="none" id="ProcessPool-backto-Unix" style="stroke:#181818;stroke-width:1.0;"/><polygon fill="#181818" points="579.02,1241.2,576.9428,1250.8273,580.0413,1246.0946,584.7741,1249.1932,579.02,1241.2" style="stroke:#181818;stroke-width:1.0;"/><text fill="#000000" font-family="sans-serif" font-size="13" lengthAdjust="spacing" textLength="72" x="591.5" y="1294.1938">processPool</text></g><!--reverse link ExecutionContext to Unix--><g id="link_ExecutionContext_Unix"><path codeLine="108" d="M732.0263,750.1493 C730.3963,854.4793 722.94,1062.99 689.5,1241 C684.7,1266.56 683.5,1273.43 672.5,1297 C664.92,1313.24 654.9,1329.94 645.12,1344.72 " fill="none" id="ExecutionContext-backto-Unix" style="stroke:#181818;stroke-width:1.0;stroke-dasharray:7.0,7.0;"/><polygon fill="#181818" points="732.12,744.15,727.9799,753.0864,732.0419,749.1494,735.9789,753.2114,732.12,744.15" style="stroke:#181818;stroke-width:1.0;"/><text fill="#000000" font-family="sans-serif" font-size="13" lengthAdjust="spacing" textLength="68" x="713.5" y="1086.1938">&#171;initializes&#187;</text></g><!--SRC=[hLRDRzem5B_dhx3OOL0HskuqHGnfwuPsgb3RROUg1vEyWaLYHxRJmjR-xtl-Id20IPkMGuYVV-_dzstKXl6QIbgH6yet2cho_Y99yf8gHUQi1BLJ6gfhKG1vG-aZFkHNGl3Xj8ACA2qPNra1pNDGwcvNetZDYW8uUI6bo3TGu0SNigAb1PxJfH9bes51zJgYE6VgErDiMIB5KeWIA0_o6w05ZJPUWvcVcOHS2xdhMRW2VRLcPI61NwEnQZWAXzq_H82XyGKtOt_nW5u0fYzfsfqMZhyHGXypuJNff5Op1YRnCardFK16C2_0TRB7SvOsY1kS3VgvoKZkNUqRROW7bmDoZBXBSozqDSYAASK4LncH6FfKy7A7QRJVpv9fm0Li8SSqMWspqGNOYYnic0kkyR0HEIUqhe4NhSI2FCUmbiAKpqAAxGvfU5CjGLh4clAYX5ksuhICO6EYh71q8bD65doyWwq-ugStfJNR4Jdre18eFZ5EvUu8YNTXpZFonNwQEZqmtMoxhwzMAgF3ElAsgk69vN3aEC5DBsJ4lEVSYtwOM6V4_invHDqH9O7RcOdPlJB-RxLdbe1z-MJRSbZZwx0bRCpGgnMqvUIGePyC_bPZCLH3nWlOUWgxhGwtn-GH9KuxHp7E15Q3gQDx0nrRvGVJwWScHvsGMHx7h4vXiGcY3iFAtb_-GMrFPIqg-4kLl96ctGu6nyBLScWvLaHbhpILUaZbIhdmF5EcxyISSQRMmv4FA2zyNuHEC68CLw2svjXIS15AzefuCfa54smx8MGmdK9RmQHHe6QpGMpj0gTlk07GuSKngptKDVfMkoIFoGbVqF43Tr2stztxPv-bFkzUc2HlsqY6MRU7ns67xrx8dRzjtCa7ukVA15Vknb6wO1mtl0-JkBOlHYrADFeaxBA3WPGdOUz6_wNzmYZjeZqcIvflLb8ql8Y7whzcm0RELjL1wMV1knuuRSlCt3m-QQSWDiK-Pq7BNNgzKgtDRplGld6szVcq5TZKLwAgSCv65rAyzH43rFj3u7hE-6i9etEzOTtAOIRDv6WifbEChMQqP3zD5oM_0G00]--></g></svg>