<?xml version="1.0" encoding="us-ascii" standalone="no"?><svg xmlns="http://www.w3.org/2000/svg" xmlns:xlink="http://www.w3.org/1999/xlink" contentStyleType="text/css" height="1456px" preserveAspectRatio="none" style="width:949px;height:1456px;background:#FFFFFF;" version="1.1" viewBox="0 0 949 1456" width="949px" zoomAndPan="magnify"><defs/><g><!--class FilesystemNode--><g id="elem_FilesystemNode"><rect codeLine="4" fill="#AAFFFF" height="128.4932" id="FilesystemNode" rx="2.5" ry="2.5" style="stroke:#181818;stroke-width:0.5;" width="248" x="534.5" y="7"/><ellipse cx="603.25" cy="23" fill="#ADD1B2" rx="11" ry="11" style="stroke:#181818;stroke-width:1.0;"/><path d="M600.9063,22.8438 Q600.9063,24.7188 601.4844,25.7344 Q602.0625,26.7344 603.2188,26.7344 Q604.5625,26.7344 605.2188,24.7188 L607.4844,25.1406 Q606.375,28.6719 603.2031,28.6719 Q600.8594,28.6719 599.6406,27.1875 Q598.4219,25.7031 598.4219,22.8438 Q598.4219,17.125 603.125,17.125 Q604.6719,17.125 605.7031,17.9375 Q606.75,18.75 607.25,20.3594 L604.9844,20.9063 Q604.75,20.0313 604.2656,19.5469 Q603.7813,19.0469 603.1563,19.0469 Q600.9063,19.0469 600.9063,22.8438 Z " fill="#000000"/><text fill="#000000" font-family="sans-serif" font-size="14" lengthAdjust="spacing" textLength="102" x="623.75" y="28.0825">FilesystemNode</text><line style="stroke:#181818;stroke-width:0.5;" x1="535.5" x2="781.5" y1="39" y2="39"/><text fill="#000000" font-family="sans-serif" font-size="14" lengthAdjust="spacing" textLength="79" x="540.5" y="56.1318">name: string</text><text fill="#000000" font-family="sans-serif" font-size="14" lengthAdjust="spacing" textLength="236" x="540.5" y="72.2305">accessType: hidden | locked | normal</text><text fill="#000000" font-family="sans-serif" font-size="14" lengthAdjust="spacing" textLength="130" x="540.5" y="88.3291">/absolutePath: string</text><text fill="#000000" font-family="sans-serif" font-size="14" lengthAdjust="spacing" textLength="114" x="540.5" y="104.4277">/isVisible: boolean</text><text fill="#000000" font-family="sans-serif" font-size="14" lengthAdjust="spacing" textLength="134" x="540.5" y="120.5264">/isReadable: boolean</text><line style="stroke:#181818;stroke-width:0.5;" x1="535.5" x2="781.5" y1="127.4932" y2="127.4932"/></g><!--class Directory--><g id="elem_Directory"><rect codeLine="12" fill="#AAFFFF" height="80.1973" id="Directory" rx="2.5" ry="2.5" style="stroke:#181818;stroke-width:0.5;" width="220" x="632.5" y="231"/><ellipse cx="709.75" cy="247" fill="#ADD1B2" rx="11" ry="11" style="stroke:#181818;stroke-width:1.0;"/><path d="M707.4063,246.8438 Q707.4063,248.7188 707.9844,249.7344 Q708.5625,250.7344 709.7188,250.7344 Q711.0625,250.7344 711.7188,248.7188 L713.9844,249.1406 Q712.875,252.6719 709.7031,252.6719 Q707.3594,252.6719 706.1406,251.1875 Q704.9219,249.7031 704.9219,246.8438 Q704.9219,241.125 709.625,241.125 Q711.1719,241.125 712.2031,241.9375 Q713.25,242.75 713.75,244.3594 L711.4844,244.9063 Q711.25,244.0313 710.7656,243.5469 Q710.2813,243.0469 709.6563,243.0469 Q707.4063,243.0469 707.4063,246.8438 Z " fill="#000000"/><text fill="#000000" font-family="sans-serif" font-size="14" lengthAdjust="spacing" textLength="57" x="730.25" y="252.0825">Directory</text><line style="stroke:#181818;stroke-width:0.5;" x1="633.5" x2="851.5" y1="263" y2="263"/><line style="stroke:#181818;stroke-width:0.5;" x1="633.5" x2="851.5" y1="271" y2="271"/><text fill="#000000" font-family="sans-serif" font-size="14" lengthAdjust="spacing" textLength="179" x="638.5" y="288.1318">getChildrenNames(): string[]</text><text fill="#000000" font-family="sans-serif" font-size="14" lengthAdjust="spacing" textLength="208" x="638.5" y="304.2305">getChild(name): FilesystemNode</text></g><!--class RootDirectory--><g id="elem_RootDirectory"><rect codeLine="18" fill="#AAFFFF" height="48" id="RootDirectory" rx="2.5" ry="2.5" style="stroke:#181818;stroke-width:0.5;" width="119" x="521" y="424"/><ellipse cx="536" cy="440" fill="#ADD1B2" rx="11" ry="11" style="stroke:#181818;stroke-width:1.0;"/><path d="M533.6563,439.8438 Q533.6563,441.7188 534.2344,442.7344 Q534.8125,443.7344 535.9688,443.7344 Q537.3125,443.7344 537.9688,441.7188 L540.2344,442.1406 Q539.125,445.6719 535.9531,445.6719 Q533.6094,445.6719 532.3906,444.1875 Q531.1719,442.7031 531.1719,439.8438 Q531.1719,434.125 535.875,434.125 Q537.4219,434.125 538.4531,434.9375 Q539.5,435.75 540,437.3594 L537.7344,437.9063 Q537.5,437.0313 537.0156,436.5469 Q536.5313,436.0469 535.9063,436.0469 Q533.6563,436.0469 533.6563,439.8438 Z " fill="#000000"/><text fill="#000000" font-family="sans-serif" font-size="14" lengthAdjust="spacing" textLength="87" x="550" y="445.0825">RootDirectory</text><line style="stroke:#181818;stroke-width:0.5;" x1="522" x2="639" y1="456" y2="456"/><line style="stroke:#181818;stroke-width:0.5;" x1="522" x2="639" y1="464" y2="464"/></g><!--class File--><g id="elem_File"><rect codeLine="26" fill="#AAFFFF" height="112.3945" id="File" rx="2.5" ry="2.5" style="stroke:#181818;stroke-width:0.5;" width="294" x="191.5" y="392"/><ellipse cx="322.75" cy="408" fill="#ADD1B2" rx="11" ry="11" style="stroke:#181818;stroke-width:1.0;"/><path d="M320.4063,407.8438 Q320.4063,409.7188 320.9844,410.7344 Q321.5625,411.7344 322.7188,411.7344 Q324.0625,411.7344 324.7188,409.7188 L326.9844,410.1406 Q325.875,413.6719 322.7031,413.6719 Q320.3594,413.6719 319.1406,412.1875 Q317.9219,410.7031 317.9219,407.8438 Q317.9219,402.125 322.625,402.125 Q324.1719,402.125 325.2031,402.9375 Q326.25,403.75 326.75,405.3594 L324.4844,405.9063 Q324.25,405.0313 323.7656,404.5469 Q323.2813,404.0469 322.6563,404.0469 Q320.4063,404.0469 320.4063,407.8438 Z " fill="#000000"/><text fill="#000000" font-family="sans-serif" font-size="14" lengthAdjust="spacing" textLength="23" x="343.25" y="413.0825">File</text><line style="stroke:#181818;stroke-width:0.5;" x1="192.5" x2="484.5" y1="424" y2="424"/><text fill="#000000" font-family="sans-serif" font-size="14" lengthAdjust="spacing" textLength="282" x="197.5" y="441.1318">permissions: read-only | read-write | execute</text><line style="stroke:#181818;stroke-width:0.5;" x1="192.5" x2="484.5" y1="448.0986" y2="448.0986"/><text fill="#000000" font-family="sans-serif" font-size="14" lengthAdjust="spacing" textLength="82" x="197.5" y="465.2305">read(): string</text><text fill="#000000" font-family="sans-serif" font-size="14" lengthAdjust="spacing" textLength="204" x="197.5" y="481.3291">write(content) / append(content)</text><text fill="#000000" font-family="sans-serif" font-size="14" lengthAdjust="spacing" textLength="233" x="197.5" y="497.4277">getExecutable(): ExecutableMethods</text></g><!--class TextFile--><g id="elem_TextFile"><rect codeLine="34" fill="#AAFFFF" height="64.0986" id="TextFile" rx="2.5" ry="2.5" style="stroke:#181818;stroke-width:0.5;" width="102" x="477.5" y="632"/><ellipse cx="501.05" cy="648" fill="#ADD1B2" rx="11" ry="11" style="stroke:#181818;stroke-width:1.0;"/><path d="M498.7063,647.8438 Q498.7063,649.7188 499.2844,650.7344 Q499.8625,651.7344 501.0188,651.7344 Q502.3625,651.7344 503.0188,649.7188 L505.2844,650.1406 Q504.175,653.6719 501.0031,653.6719 Q498.6594,653.6719 497.4406,652.1875 Q496.2219,650.7031 496.2219,647.8438 Q496.2219,642.125 500.925,642.125 Q502.4719,642.125 503.5031,642.9375 Q504.55,643.75 505.05,645.3594 L502.7844,645.9063 Q502.55,645.0313 502.0656,644.5469 Q501.5813,644.0469 500.9563,644.0469 Q498.7063,644.0469 498.7063,647.8438 Z " fill="#000000"/><text fill="#000000" font-family="sans-serif" font-size="14" lengthAdjust="spacing" textLength="51" x="516.95" y="653.0825">TextFile</text><line style="stroke:#181818;stroke-width:0.5;" x1="478.5" x2="578.5" y1="664" y2="664"/><text fill="#000000" font-family="sans-serif" font-size="14" lengthAdjust="spacing" textLength="90" x="483.5" y="681.1318">content: string</text><line style="stroke:#181818;stroke-width:0.5;" x1="478.5" x2="578.5" y1="688.0986" y2="688.0986"/></g><!--class BinaryFile--><g id="elem_BinaryFile"><rect codeLine="39" fill="#AAFFFF" height="80.1973" id="BinaryFile" rx="2.5" ry="2.5" style="stroke:#181818;stroke-width:0.5;" width="208" x="234.5" y="624"/><ellipse cx="302.75" cy="640" fill="#ADD1B2" rx="11" ry="11" style="stroke:#181818;stroke-width:1.0;"/><path d="M300.4063,639.8438 Q300.4063,641.7188 300.9844,642.7344 Q301.5625,643.7344 302.7188,643.7344 Q304.0625,643.7344 304.7188,641.7188 L306.9844,642.1406 Q305.875,645.6719 302.7031,645.6719 Q300.3594,645.6719 299.1406,644.1875 Q297.9219,642.7031 297.9219,639.8438 Q297.9219,634.125 302.625,634.125 Q304.1719,634.125 305.2031,634.9375 Q306.25,635.75 306.75,637.3594 L304.4844,637.9063 Q304.25,637.0313 303.7656,636.5469 Q303.2813,636.0469 302.6563,636.0469 Q300.4063,636.0469 300.4063,639.8438 Z " fill="#000000"/><text fill="#000000" font-family="sans-serif" font-size="14" lengthAdjust="spacing" textLength="63" x="323.25" y="645.0825">BinaryFile</text><line style="stroke:#181818;stroke-width:0.5;" x1="235.5" x2="441.5" y1="656" y2="656"/><text fill="#000000" font-family="sans-serif" font-size="14" lengthAdjust="spacing" textLength="145" x="240.5" y="673.1318">executeFn: Executable</text><text fill="#000000" font-family="sans-serif" font-size="14" lengthAdjust="spacing" textLength="196" x="240.5" y="689.2305">handleSignalFn: SignalHandler</text><line style="stroke:#181818;stroke-width:0.5;" x1="235.5" x2="441.5" y1="696.1973" y2="696.1973"/></g><!--class DeviceFile--><g id="elem_DeviceFile"><rect codeLine="45" fill="#AAFFFF" height="80.1973" id="DeviceFile" rx="2.5" ry="2.5" style="stroke:#181818;stroke-width:0.5;" width="121" x="7" y="624"/><ellipse cx="32.35" cy="640" fill="#ADD1B2" rx="11" ry="11" style="stroke:#181818;stroke-width:1.0;"/><path d="M30.0063,639.8438 Q30.0063,641.7188 30.5844,642.7344 Q31.1625,643.7344 32.3188,643.7344 Q33.6625,643.7344 34.3188,641.7188 L36.5844,642.1406 Q35.475,645.6719 32.3031,645.6719 Q29.9594,645.6719 28.7406,644.1875 Q27.5219,642.7031 27.5219,639.8438 Q27.5219,634.125 32.225,634.125 Q33.7719,634.125 34.8031,634.9375 Q35.85,635.75 36.35,637.3594 L34.0844,637.9063 Q33.85,637.0313 33.3656,636.5469 Q32.8813,636.0469 32.2563,636.0469 Q30.0063,636.0469 30.0063,639.8438 Z " fill="#000000"/><text fill="#000000" font-family="sans-serif" font-size="14" lengthAdjust="spacing" textLength="66" x="48.65" y="645.0825">DeviceFile</text><line style="stroke:#181818;stroke-width:0.5;" x1="8" x2="127" y1="656" y2="656"/><text fill="#000000" font-family="sans-serif" font-size="14" lengthAdjust="spacing" textLength="109" x="13" y="673.1318">onRead: ReadFn</text><text fill="#000000" font-family="sans-serif" font-size="14" lengthAdjust="spacing" textLength="107" x="13" y="689.2305">onWrite: WriteFn</text><line style="stroke:#181818;stroke-width:0.5;" x1="8" x2="127" y1="696.1973" y2="696.1973"/></g><!--class ExecutionContext--><g id="elem_ExecutionContext"><rect codeLine="52" fill="#F1F1F1" height="128.4932" id="ExecutionContext" rx="2.5" ry="2.5" style="stroke:#181818;stroke-width:0.5;" width="235" x="615" y="600"/><ellipse cx="672.75" cy="616" fill="#ADD1B2" rx="11" ry="11" style="stroke:#181818;stroke-width:1.0;"/><path d="M670.4063,615.8438 Q670.4063,617.7188 670.9844,618.7344 Q671.5625,619.7344 672.7188,619.7344 Q674.0625,619.7344 674.7188,617.7188 L676.9844,618.1406 Q675.875,621.6719 672.7031,621.6719 Q670.3594,621.6719 669.1406,620.1875 Q667.9219,618.7031 667.9219,615.8438 Q667.9219,610.125 672.625,610.125 Q674.1719,610.125 675.2031,610.9375 Q676.25,611.75 676.75,613.3594 L674.4844,613.9063 Q674.25,613.0313 673.7656,612.5469 Q673.2813,612.0469 672.6563,612.0469 Q670.4063,612.0469 670.4063,615.8438 Z " fill="#000000"/><text fill="#000000" font-family="sans-serif" font-size="14" lengthAdjust="spacing" textLength="111" x="693.25" y="621.0825">ExecutionContext</text><line style="stroke:#181818;stroke-width:0.5;" x1="616" x2="849" y1="632" y2="632"/><line style="stroke:#181818;stroke-width:0.5;" x1="616" x2="849" y1="640" y2="640"/><text fill="#000000" font-family="sans-serif" font-size="14" lengthAdjust="spacing" textLength="223" x="621" y="657.1318">resolvePath(path): FilesystemNode</text><text fill="#000000" font-family="sans-serif" font-size="14" lengthAdjust="spacing" textLength="142" x="621" y="673.2305">changeDirectory(path)</text><text fill="#000000" font-family="sans-serif" font-size="14" lengthAdjust="spacing" textLength="164" x="621" y="689.3291">getFileStream(index): File</text><text fill="#000000" font-family="sans-serif" font-size="14" lengthAdjust="spacing" textLength="158" x="621" y="705.4277">setFileStream(index, file)</text><text fill="#000000" font-family="sans-serif" font-size="14" lengthAdjust="spacing" textLength="148" x="621" y="721.5264">createPipe(): [File, File]</text></g><!--class Process--><g id="elem_Process"><rect codeLine="65" fill="#F1F1F1" height="144.5918" id="Process" rx="2.5" ry="2.5" style="stroke:#181818;stroke-width:0.5;" width="129" x="307" y="1305"/><ellipse cx="342.7" cy="1321" fill="#ADD1B2" rx="11" ry="11" style="stroke:#181818;stroke-width:1.0;"/><path d="M340.3563,1320.8438 Q340.3563,1322.7188 340.9344,1323.7344 Q341.5125,1324.7344 342.6688,1324.7344 Q344.0125,1324.7344 344.6688,1322.7188 L346.9344,1323.1406 Q345.825,1326.6719 342.6531,1326.6719 Q340.3094,1326.6719 339.0906,1325.1875 Q337.8719,1323.7031 337.8719,1320.8438 Q337.8719,1315.125 342.575,1315.125 Q344.1219,1315.125 345.1531,1315.9375 Q346.2,1316.75 346.7,1318.3594 L344.4344,1318.9063 Q344.2,1318.0313 343.7156,1317.5469 Q343.2313,1317.0469 342.6063,1317.0469 Q340.3563,1317.0469 340.3563,1320.8438 Z " fill="#000000"/><text fill="#000000" font-family="sans-serif" font-size="14" lengthAdjust="spacing" textLength="51" x="361.3" y="1326.0825">Process</text><line style="stroke:#181818;stroke-width:0.5;" x1="308" x2="435" y1="1337" y2="1337"/><text fill="#000000" font-family="sans-serif" font-size="14" lengthAdjust="spacing" textLength="76" x="313" y="1354.1318">pid: number</text><text fill="#000000" font-family="sans-serif" font-size="14" lengthAdjust="spacing" textLength="84" x="313" y="1370.2305">ppid: number</text><text fill="#000000" font-family="sans-serif" font-size="14" lengthAdjust="spacing" textLength="84" x="313" y="1386.3291">pgid: number</text><line style="stroke:#181818;stroke-width:0.5;" x1="308" x2="435" y1="1393.2959" y2="1393.2959"/><text fill="#000000" font-family="sans-serif" font-size="14" lengthAdjust="spacing" textLength="66" x="313" y="1410.4277">start(args)</text><text fill="#000000" font-family="sans-serif" font-size="14" lengthAdjust="spacing" textLength="90" x="313" y="1426.5264">waitToFinish()</text><text fill="#000000" font-family="sans-serif" font-size="14" lengthAdjust="spacing" textLength="117" x="313" y="1442.625">sendSignal(signal)</text></g><!--class ProcessProxy--><g id="elem_ProcessProxy"><rect codeLine="86" fill="#F1F1F1" height="176.7891" id="ProcessProxy" rx="2.5" ry="2.5" style="stroke:#181818;stroke-width:0.5;" width="317" x="236" y="824"/><ellipse cx="346.75" cy="840" fill="#ADD1B2" rx="11" ry="11" style="stroke:#181818;stroke-width:1.0;"/><path d="M344.4063,839.8438 Q344.4063,841.7188 344.9844,842.7344 Q345.5625,843.7344 346.7188,843.7344 Q348.0625,843.7344 348.7188,841.7188 L350.9844,842.1406 Q349.875,845.6719 346.7031,845.6719 Q344.3594,845.6719 343.1406,844.1875 Q341.9219,842.7031 341.9219,839.8438 Q341.9219,834.125 346.625,834.125 Q348.1719,834.125 349.2031,834.9375 Q350.25,835.75 350.75,837.3594 L348.4844,837.9063 Q348.25,837.0313 347.7656,836.5469 Q347.2813,836.0469 346.6563,836.0469 Q344.4063,836.0469 344.4063,839.8438 Z " fill="#000000"/><text fill="#000000" font-family="sans-serif" font-size="14" lengthAdjust="spacing" textLength="87" x="367.25" y="845.0825">ProcessProxy</text><line style="stroke:#181818;stroke-width:0.5;" x1="237" x2="552" y1="856" y2="856"/><text fill="#000000" font-family="sans-serif" font-size="14" lengthAdjust="spacing" textLength="108" x="242" y="873.1318">pid = process.pid</text><line style="stroke:#181818;stroke-width:0.5;" x1="237" x2="552" y1="880.0986" y2="880.0986"/><text fill="#000000" font-family="sans-serif" font-size="14" lengthAdjust="spacing" textLength="207" x="242" y="897.2305">/stdin = context.getFileStream(0)</text><text fill="#000000" font-family="sans-serif" font-size="14" lengthAdjust="spacing" textLength="216" x="242" y="913.3291">/stdout = context.getFileStream(1)</text><text fill="#000000" font-family="sans-serif" font-size="14" lengthAdjust="spacing" textLength="214" x="242" y="929.4277">/stderr = context.getFileStream(2)</text><text fill="#000000" font-family="sans-serif" font-size="14" lengthAdjust="spacing" textLength="223" x="242" y="945.5264">resolvePath(path): FilesystemNode</text><text fill="#000000" font-family="sans-serif" font-size="14" lengthAdjust="spacing" textLength="142" x="242" y="961.625">changeDirectory(path)</text><text fill="#000000" font-family="sans-serif" font-size="14" lengthAdjust="spacing" textLength="305" x="242" y="977.7236">execute(executable, args, background): number</text><text fill="#000000" font-family="sans-serif" font-size="14" lengthAdjust="spacing" textLength="144" x="242" y="993.8223">sendSignal(pid, signal)</text></g><!--class ProcessTable--><g id="elem_ProcessTable"><rect codeLine="76" fill="#F1F1F1" height="112.3945" id="ProcessTable" rx="2.5" ry="2.5" style="stroke:#181818;stroke-width:0.5;" width="209" x="470" y="1097"/><ellipse cx="526.75" cy="1113" fill="#ADD1B2" rx="11" ry="11" style="stroke:#181818;stroke-width:1.0;"/><path d="M524.4063,1112.8438 Q524.4063,1114.7188 524.9844,1115.7344 Q525.5625,1116.7344 526.7188,1116.7344 Q528.0625,1116.7344 528.7188,1114.7188 L530.9844,1115.1406 Q529.875,1118.6719 526.7031,1118.6719 Q524.3594,1118.6719 523.1406,1117.1875 Q521.9219,1115.7031 521.9219,1112.8438 Q521.9219,1107.125 526.625,1107.125 Q528.1719,1107.125 529.2031,1107.9375 Q530.25,1108.75 530.75,1110.3594 L528.4844,1110.9063 Q528.25,1110.0313 527.7656,1109.5469 Q527.2813,1109.0469 526.6563,1109.0469 Q524.4063,1109.0469 524.4063,1112.8438 Z " fill="#000000"/><text fill="#000000" font-family="sans-serif" font-size="14" lengthAdjust="spacing" textLength="87" x="547.25" y="1118.0825">ProcessTable</text><line style="stroke:#181818;stroke-width:0.5;" x1="471" x2="678" y1="1129" y2="1129"/><text fill="#000000" font-family="sans-serif" font-size="14" lengthAdjust="spacing" textLength="104" x="476" y="1146.1318">nextPid: number</text><line style="stroke:#181818;stroke-width:0.5;" x1="471" x2="678" y1="1153.0986" y2="1153.0986"/><text fill="#000000" font-family="sans-serif" font-size="14" lengthAdjust="spacing" textLength="197" x="476" y="1170.2305">startProcess(context, file, args)</text><text fill="#000000" font-family="sans-serif" font-size="14" lengthAdjust="spacing" textLength="109" x="476" y="1186.3291">waitToFinish(pid)</text><text fill="#000000" font-family="sans-serif" font-size="14" lengthAdjust="spacing" textLength="144" x="476" y="1202.4277">sendSignal(pid, signal)</text></g><!--class UnixShell--><g id="elem_UnixShell"><rect codeLine="102" fill="#F1F1F1" height="96.2959" id="UnixShell" rx="2.5" ry="2.5" style="stroke:#181818;stroke-width:0.5;" width="202" x="516.5" y="1329.5"/><ellipse cx="583.75" cy="1345.5" fill="#ADD1B2" rx="11" ry="11" style="stroke:#181818;stroke-width:1.0;"/><path d="M581.4063,1345.3438 Q581.4063,1347.2188 581.9844,1348.2344 Q582.5625,1349.2344 583.7188,1349.2344 Q585.0625,1349.2344 585.7188,1347.2188 L587.9844,1347.6406 Q586.875,1351.1719 583.7031,1351.1719 Q581.3594,1351.1719 580.1406,1349.6875 Q578.9219,1348.2031 578.9219,1345.3438 Q578.9219,1339.625 583.625,1339.625 Q585.1719,1339.625 586.2031,1340.4375 Q587.25,1341.25 587.75,1342.8594 L585.4844,1343.4063 Q585.25,1342.5313 584.7656,1342.0469 Q584.2813,1341.5469 583.6563,1341.5469 Q581.4063,1341.5469 581.4063,1345.3438 Z " fill="#000000"/><text fill="#000000" font-family="sans-serif" font-size="14" lengthAdjust="spacing" textLength="59" x="604.25" y="1350.5825">UnixShell</text><line style="stroke:#181818;stroke-width:0.5;" x1="517.5" x2="717.5" y1="1361.5" y2="1361.5"/><text fill="#000000" font-family="sans-serif" font-size="14" lengthAdjust="spacing" textLength="153" x="522.5" y="1378.6318">startupCommand: string</text><text fill="#000000" font-family="sans-serif" font-size="14" lengthAdjust="spacing" textLength="190" x="522.5" y="1394.7305">startupCommandArgs: string[]</text><line style="stroke:#181818;stroke-width:0.5;" x1="517.5" x2="717.5" y1="1401.6973" y2="1401.6973"/><text fill="#000000" font-family="sans-serif" font-size="14" lengthAdjust="spacing" textLength="38" x="522.5" y="1418.8291">start()</text></g><!--reverse link FilesystemNode to Directory--><g id="link_FilesystemNode_Directory"><path codeLine="16" d="M730.4067,149.9212 C739.2067,162.2512 736.5,161.06 741.5,175 C747.79,192.54 748.73,213.11 747.8,230.61 " fill="none" id="FilesystemNode-backto-Directory" style="stroke:#181818;stroke-width:1.0;"/><polygon fill="none" points="719.95,135.27,725.5229,153.4068,735.2904,146.4357,719.95,135.27" style="stroke:#181818;stroke-width:1.0;"/></g><!--link FilesystemNode to Directory--><g id="link_FilesystemNode_Directory"><path codeLine="23" d="M610.9151,140.8354 C603.1951,159.2954 602.73,173.63 612.5,191 C621.5,207 625.3665,213.238 640.5465,223.888 " fill="none" id="FilesystemNode-Directory" style="stroke:#181818;stroke-width:1.0;"/><polygon fill="#181818" points="613.23,135.3,606.0673,142.0599,611.3009,139.9129,613.4479,145.1464,613.23,135.3" style="stroke:#181818;stroke-width:1.0;"/><polygon fill="#181818" points="650.37,230.78,647.7556,224.0595,640.5465,223.888,643.1609,230.6085,650.37,230.78" style="stroke:#181818;stroke-width:1.0;"/><text fill="#000000" font-family="sans-serif" font-size="13" lengthAdjust="spacing" textLength="45" x="613.5" y="188.1938">children</text><text fill="#000000" font-family="sans-serif" font-size="13" lengthAdjust="spacing" textLength="5" x="602.7066" y="155.7642">*</text></g><!--link FilesystemNode to Directory--><g id="link_FilesystemNode_Directory"><path codeLine="24" d="M675.1,135.09 C680.73,153.45 687.62,173.31 695.5,191 C701.47,204.41 706.1208,213.2524 713.6008,225.6524 " fill="none" id="FilesystemNode-to-Directory" style="stroke:#181818;stroke-width:1.0;"/><polygon fill="#181818" points="716.7,230.79,715.4764,221.0175,714.1174,226.5086,708.6262,225.1497,716.7,230.79" style="stroke:#181818;stroke-width:1.0;"/><text fill="#000000" font-family="sans-serif" font-size="13" lengthAdjust="spacing" textLength="36" x="696.5" y="188.1938">parent</text><text fill="#000000" font-family="sans-serif" font-size="13" lengthAdjust="spacing" textLength="7" x="704.2978" y="220.3488">1</text></g><!--reverse link Directory to RootDirectory--><g id="link_Directory_RootDirectory"><path codeLine="20" d="M693.9131,324.4799 C661.8231,359.1499 628.37,395.29 601.84,423.95 " fill="none" id="Directory-backto-RootDirectory" style="stroke:#181818;stroke-width:1.0;"/><polygon fill="none" points="706.14,311.27,689.5098,320.4043,698.3164,328.5556,706.14,311.27" style="stroke:#181818;stroke-width:1.0;"/></g><!--link RootDirectory to RootDirectory--><g id="link_RootDirectory_RootDirectory"><path codeLine="21" d="M640.02,430 C659.5,430.09 675,436.09 675,448 C675,459.91 665.4999,465.8823 646.0199,465.9723 " fill="none" id="RootDirectory-to-RootDirectory" style="stroke:#181818;stroke-width:1.0;"/><polygon fill="#181818" points="640.02,466,649.0384,469.9584,645.0199,465.9769,649.0014,461.9585,640.02,466" style="stroke:#181818;stroke-width:1.0;"/><text fill="#000000" font-family="sans-serif" font-size="13" lengthAdjust="spacing" textLength="36" x="681" y="453.1938">parent</text></g><!--reverse link FilesystemNode to File--><g id="link_FilesystemNode_File"><path codeLine="32" d="M592.8962,148.8827 C531.5362,220.7927 443.97,323.41 385.6,391.81 " fill="none" id="FilesystemNode-backto-File" style="stroke:#181818;stroke-width:1.0;"/><polygon fill="none" points="604.58,135.19,588.332,144.9881,597.4604,152.7773,604.58,135.19" style="stroke:#181818;stroke-width:1.0;"/></g><!--reverse link File to TextFile--><g id="link_File_TextFile"><path codeLine="37" d="M399.3799,517.571 C435.4399,558.191 471.25,598.51 500.91,631.93 " fill="none" id="File-backto-TextFile" style="stroke:#181818;stroke-width:1.0;"/><polygon fill="none" points="387.43,504.11,394.8929,521.5543,403.8669,513.5877,387.43,504.11" style="stroke:#181818;stroke-width:1.0;"/></g><!--reverse link File to BinaryFile--><g id="link_File_BinaryFile"><path codeLine="43" d="M338.5,522.11 C338.5,559.63 338.5,590.39 338.5,623.95 " fill="none" id="File-backto-BinaryFile" style="stroke:#181818;stroke-width:1.0;"/><polygon fill="none" points="338.5,504.11,332.5,522.11,344.5,522.11,338.5,504.11" style="stroke:#181818;stroke-width:1.0;"/></g><!--reverse link File to DeviceFile--><g id="link_File_DeviceFile"><path codeLine="49" d="M197.882,513.0086 C177.462,524.7086 172.93,529.13 155.5,544 C129.02,566.6 105.91,598.61 90.03,623.75 " fill="none" id="File-backto-DeviceFile" style="stroke:#181818;stroke-width:1.0;"/><polygon fill="none" points="213.5,504.06,194.8991,507.8026,200.8649,518.2146,213.5,504.06" style="stroke:#181818;stroke-width:1.0;"/></g><!--reverse link File to ExecutionContext--><g id="link_File_ExecutionContext"><path codeLine="60" d="M445.2326,506.9736 C499.1626,536.2636 560.41,569.53 616.39,599.94 " fill="none" id="File-backto-ExecutionContext" style="stroke:#181818;stroke-width:1.0;"/><polygon fill="#181818" points="439.96,504.11,445.9598,511.9204,444.3538,506.4963,449.7779,504.8903,439.96,504.11" style="stroke:#181818;stroke-width:1.0;"/><text fill="#000000" font-family="sans-serif" font-size="13" lengthAdjust="spacing" textLength="66" x="536.5" y="557.1938">fileStreams</text><text fill="#000000" font-family="sans-serif" font-size="13" lengthAdjust="spacing" textLength="5" x="447.6392" y="524.4253">*</text></g><!--reverse link RootDirectory to ExecutionContext--><g id="link_RootDirectory_ExecutionContext"><path codeLine="61" d="M600.5341,477.2019 C622.0741,507.5319 657.09,556.83 687.54,599.71 " fill="none" id="RootDirectory-backto-ExecutionContext" style="stroke:#181818;stroke-width:1.0;"/><polygon fill="#181818" points="597.06,472.31,599.01,481.9639,599.9551,476.3866,605.5325,477.3317,597.06,472.31" style="stroke:#181818;stroke-width:1.0;"/><text fill="#000000" font-family="sans-serif" font-size="13" lengthAdjust="spacing" textLength="74" x="657.5" y="557.1938">rootDirectory</text><text fill="#000000" font-family="sans-serif" font-size="13" lengthAdjust="spacing" textLength="7" x="593.2434" y="492.2513">1</text></g><!--reverse link Directory to ExecutionContext--><g id="link_Directory_ExecutionContext"><path codeLine="62" d="M743.1714,317.1496 C743.8314,372.5796 744.26,471.08 740.5,560 C739.95,572.9 739.08,586.69 738.11,599.86 " fill="none" id="Directory-backto-ExecutionContext" style="stroke:#181818;stroke-width:1.0;"/><polygon fill="#181818" points="743.1,311.15,739.2074,320.197,743.1595,316.1496,747.2069,320.1017,743.1,311.15" style="stroke:#181818;stroke-width:1.0;"/><text fill="#000000" font-family="sans-serif" font-size="13" lengthAdjust="spacing" textLength="84" x="744.5" y="453.1938">homeDirectory</text><text fill="#000000" font-family="sans-serif" font-size="13" lengthAdjust="spacing" textLength="7" x="735.6016" y="331.5123">1</text></g><!--reverse link Directory to ExecutionContext--><g id="link_Directory_ExecutionContext"><path codeLine="63" d="M788.6731,315.4371 C808.8631,337.0771 826.85,361.38 837.5,392 C853.86,439.01 851.82,456.33 837.5,504 C827.17,538.37 806.74,572.17 786.62,599.71 " fill="none" id="Directory-backto-ExecutionContext-1" style="stroke:#181818;stroke-width:1.0;"/><polygon fill="#181818" points="784.58,311.05,787.795,320.3594,787.9909,314.7059,793.6444,314.9019,784.58,311.05" style="stroke:#181818;stroke-width:1.0;"/><text fill="#000000" font-family="sans-serif" font-size="13" lengthAdjust="spacing" textLength="92" x="849.5" y="453.1938">currentDirectory</text><text fill="#000000" font-family="sans-serif" font-size="13" lengthAdjust="spacing" textLength="7" x="784.2109" y="331.3951">1</text></g><!--reverse link File to Process--><g id="link_File_Process"><path codeLine="74" d="M263.4398,508.3511 C221.7698,547.5511 181.5,600.1 181.5,663 C181.5,663 181.5,663 181.5,1154 C181.5,1233.11 251.83,1298.32 306.91,1337.26 " fill="none" id="File-backto-Process" style="stroke:#181818;stroke-width:1.0;"/><polygon fill="#181818" points="267.81,504.24,258.514,507.4933,264.1682,507.666,263.9955,513.3202,267.81,504.24" style="stroke:#181818;stroke-width:1.0;"/><text fill="#000000" font-family="sans-serif" font-size="13" lengthAdjust="spacing" textLength="17" x="182.5" y="917.6938">file</text></g><!--link BinaryFile to ProcessProxy--><g id="link_BinaryFile_ProcessProxy"><path codeLine="75" d="M347.37,704.06 C354.67,736.16 363.9505,777.0192 373.2605,817.9892 " fill="none" id="BinaryFile-to-ProcessProxy" style="stroke:#181818;stroke-width:1.0;stroke-dasharray:7.0,7.0;"/><polygon fill="#181818" points="374.59,823.84,376.4962,814.1774,373.482,818.9643,368.6951,815.9501,374.59,823.84" style="stroke:#181818;stroke-width:1.0;"/><text fill="#000000" font-family="sans-serif" font-size="13" lengthAdjust="spacing" textLength="109" x="366.5" y="781.1938">&#171;executable uses&#187;</text></g><!--link ProcessTable to Process--><g id="link_ProcessTable_Process"><path codeLine="82" d="M516.2321,1217.8648 C489.5821,1247.0748 468.6548,1270.0184 440.1048,1301.2984 " fill="none" id="ProcessTable-Process" style="stroke:#181818;stroke-width:1.0;"/><polygon fill="#181818" points="524.32,1209,517.3211,1210.7364,516.2321,1217.8648,523.231,1216.1284,524.32,1209" style="stroke:#181818;stroke-width:1.0;"/><polygon fill="#181818" points="436.06,1305.73,445.0817,1301.7791,439.4307,1302.037,439.1729,1296.386,436.06,1305.73" style="stroke:#181818;stroke-width:1.0;"/><text fill="#000000" font-family="sans-serif" font-size="13" lengthAdjust="spacing" textLength="5" x="443.8138" y="1294.8945">*</text></g><!--reverse link ExecutionContext to ProcessProxy--><g id="link_ExecutionContext_ProcessProxy"><path codeLine="96" d="M641.0519,731.695 C601.1419,760.795 557.98,792.28 514.65,823.87 " fill="none" id="ExecutionContext-backto-ProcessProxy" style="stroke:#181818;stroke-width:1.0;"/><polygon fill="#181818" points="645.9,728.16,636.2712,730.2304,641.8599,731.1058,640.9845,736.6945,645.9,728.16" style="stroke:#181818;stroke-width:1.0;"/><text fill="#000000" font-family="sans-serif" font-size="13" lengthAdjust="spacing" textLength="43" x="585.5" y="781.1938">context</text></g><!--link ProcessProxy to Process--><g id="link_ProcessProxy_Process"><path codeLine="97" d="M390.15,1001.13 C385.78,1089.09 379.428,1216.9574 375.358,1298.7974 " fill="none" id="ProcessProxy-to-Process" style="stroke:#181818;stroke-width:1.0;"/><polygon fill="#181818" points="375.06,1304.79,379.5021,1295.9998,375.3083,1299.7962,371.512,1295.6024,375.06,1304.79" style="stroke:#181818;stroke-width:1.0;"/><text fill="#000000" font-family="sans-serif" font-size="13" lengthAdjust="spacing" textLength="46" x="386.5" y="1158.1938">process</text></g><!--link ProcessProxy to Process--><g id="link_ProcessProxy_Process"><path codeLine="99" d="M360.0779,1007.1267 C350.5479,1037.0267 343.24,1065.21 338.5,1097 C327.99,1167.44 337.5778,1236.5489 349.9878,1293.0989 " fill="none" id="ProcessProxy-Process" style="stroke:#181818;stroke-width:1.0;"/><polygon fill="#181818" points="361.9,1001.41,355.3558,1008.7703,360.3816,1006.1739,362.978,1011.1997,361.9,1001.41" style="stroke:#181818;stroke-width:1.0;"/><polygon fill="#181818" points="352.56,1304.82,355.1809,1298.1021,349.9878,1293.0989,347.3669,1299.8169,352.56,1304.82" style="stroke:#181818;stroke-width:1.0;"/><text fill="#000000" font-family="sans-serif" font-size="13" lengthAdjust="spacing" textLength="32" x="339.5" y="1158.1938">proxy</text></g><!--link ProcessProxy to ProcessTable--><g id="link_ProcessProxy_ProcessTable"><path codeLine="98" d="M460.76,1001.29 C484.92,1033.3 507.9149,1063.7814 529.3249,1092.1414 " fill="none" id="ProcessProxy-to-ProcessTable" style="stroke:#181818;stroke-width:1.0;"/><polygon fill="#181818" points="532.94,1096.93,530.7098,1087.337,529.9274,1092.9395,524.3249,1092.1571,532.94,1096.93" style="stroke:#181818;stroke-width:1.0;"/><text fill="#000000" font-family="sans-serif" font-size="13" lengthAdjust="spacing" textLength="28" x="502.5" y="1054.1938">table</text></g><!--reverse link ProcessTable to UnixShell--><g id="link_ProcessTable_UnixShell"><path codeLine="107" d="M586.2689,1214.8909 C593.4089,1251.8209 601.57,1294.09 608.38,1329.29 " fill="none" id="ProcessTable-backto-UnixShell" style="stroke:#181818;stroke-width:1.0;"/><polygon fill="#181818" points="585.13,1209,582.9111,1218.5957,586.0791,1213.9091,590.7657,1217.0771,585.13,1209" style="stroke:#181818;stroke-width:1.0;"/><text fill="#000000" font-family="sans-serif" font-size="13" lengthAdjust="spacing" textLength="78" x="596.5" y="1262.1938">processTable</text></g><!--reverse link ExecutionContext to UnixShell--><g id="link_ExecutionContext_UnixShell"><path codeLine="108" d="M731.5044,734.1787 C729.3744,835.9387 722.09,1036.25 696.5,1209 C692.76,1234.27 693.01,1241.28 683.5,1265 C674.63,1287.13 661.79,1310.05 649.79,1329.31 " fill="none" id="ExecutionContext-backto-UnixShell" style="stroke:#181818;stroke-width:1.0;stroke-dasharray:7.0,7.0;"/><polygon fill="#181818" points="731.63,728.18,727.4425,737.0943,731.5254,733.1789,735.4408,737.2617,731.63,728.18" style="stroke:#181818;stroke-width:1.0;"/><text fill="#000000" font-family="sans-serif" font-size="13" lengthAdjust="spacing" textLength="68" x="715.5" y="1054.1938">&#171;initializes&#187;</text></g><!--SRC=[hLRFRzCm5Bxdhx3AWNHgkeqJYaeb65HSGDDMu33ju2PlhTN4ZcndQs7xttcsuoHEMn0IFIJn- -NttlSzkshBU4KbBSaDvLi55Nbx4KLPGPKY2rQ0sYiDvLUH0tb5wGF-oA-8u8_J4bAYj6HyRGKqoq2fvRv2yORbEN3oJ0gHRI773ovaIGjhU4vNIXIrXckgDq68SwQ-CyLM1OPO2L40vLv-0pIdWUB5f_cHISYqaFj1XclGLnjMv1BuLqnMnME_sTrzO12RMb0PreiR31emUqwIRZU__OqG-bWABr4djPwXOHGkasG-C4W9uW9SHxquPqcDTgEpqH2Rb6HDgSEaJU3HvOWS2zp1F6XT1R9aIZ71LKeajZuHlDWZZFRxIJ8Dk80TP0YZzJ2Ahi5MPCtYJ72Dcut9EQ5L1Jnl9Hw3JpQC0TS4w5PVG6z4haxWO6I-WYNiz94gcetQf5mWv-vTV8WFZ5EvFnAaANB1-wbPpORol81RjkQqC6htzTbAPR1P5xpbB3oo38vi9xXXUahCSy4RqG_JoPJOru87eRj0aO_jqaJihapzEzr4be1JzsY7BgxmSKXuspEiQWqjMPobHyhOtsg4kemPps7NXB1gTQYUa0UKEEyCnJZnhB8WtndJYNM-DuDya7B0yzJ6SP7LALkaU30_oDl-yWzkFPUDAE4VNR9Qcc4wE1QkfJ3deHyeXfZokbmXC-pwGB0U29IcKiTKhfLhu1DbUYaMZ3ErYSTDotdkI1Sh-t9YRAZVt2PioU9w6FLeFftEVPBusfbpOJIRGSjnKYjGy_aeh6TfLSqLW3svFfPsO-icVQST3oRaH37OYeDwK3OXlgYs7hVvMT9mev56qUkss_wqwpkanCriM8YhkKM7l2ELKqnnvMuTfNF6KT6KCGqdu6BSMebQdpIxxCn0ofDcRyR_PKYRqohkO7Hjdv0LpRPhAMgUZqF0_jPqroZBf8E1I7qr0-EafPQvRHgOJfauL3rAtizTTGE2LkRT7dJVEDlTRg0e6XWjz-hgIfGb7iB1NHIgtcD71ly5tBYPihke_GnyabLlsJETrjEZxPdDaEEQqOBzDCCK_GO0]--></g></svg>