<?xml version="1.0" encoding="us-ascii" standalone="no"?><svg xmlns="http://www.w3.org/2000/svg" xmlns:xlink="http://www.w3.org/1999/xlink" contentStyleType="text/css" height="1472px" preserveAspectRatio="none" style="width:956px;height:1472px;background:#FFFFFF;" version="1.1" viewBox="0 0 956 1472" width="956px" zoomAndPan="magnify"><defs/><g><!--class FilesystemNode--><g id="elem_FilesystemNode"><rect codeLine="4" fill="#AAFFFF" height="128.4932" id="FilesystemNode" rx="2.5" ry="2.5" style="stroke:#181818;stroke-width:0.5;" width="248" x="534.5" y="7"/><ellipse cx="603.25" cy="23" fill="#ADD1B2" rx="11" ry="11" style="stroke:#181818;stroke-width:1.0;"/><path d="M600.9063,22.8438 Q600.9063,24.7188 601.4844,25.7344 Q602.0625,26.7344 603.2188,26.7344 Q604.5625,26.7344 605.2188,24.7188 L607.4844,25.1406 Q606.375,28.6719 603.2031,28.6719 Q600.8594,28.6719 599.6406,27.1875 Q598.4219,25.7031 598.4219,22.8438 Q598.4219,17.125 603.125,17.125 Q604.6719,17.125 605.7031,17.9375 Q606.75,18.75 607.25,20.3594 L604.9844,20.9063 Q604.75,20.0313 604.2656,19.5469 Q603.7813,19.0469 603.1563,19.0469 Q600.9063,19.0469 600.9063,22.8438 Z " fill="#000000"/><text fill="#000000" font-family="sans-serif" font-size="14" lengthAdjust="spacing" textLength="102" x="623.75" y="28.0825">FilesystemNode</text><line style="stroke:#181818;stroke-width:0.5;" x1="535.5" x2="781.5" y1="39" y2="39"/><text fill="#000000" font-family="sans-serif" font-size="14" lengthAdjust="spacing" textLength="79" x="540.5" y="56.1318">name: string</text><text fill="#000000" font-family="sans-serif" font-size="14" lengthAdjust="spacing" textLength="236" x="540.5" y="72.2305">accessType: hidden | locked | normal</text><text fill="#000000" font-family="sans-serif" font-size="14" lengthAdjust="spacing" textLength="130" x="540.5" y="88.3291">/absolutePath: string</text><text fill="#000000" font-family="sans-serif" font-size="14" lengthAdjust="spacing" textLength="114" x="540.5" y="104.4277">/isVisible: boolean</text><text fill="#000000" font-family="sans-serif" font-size="14" lengthAdjust="spacing" textLength="134" x="540.5" y="120.5264">/isReadable: boolean</text><line style="stroke:#181818;stroke-width:0.5;" x1="535.5" x2="781.5" y1="127.4932" y2="127.4932"/></g><!--class Directory--><g id="elem_Directory"><rect codeLine="12" fill="#AAFFFF" height="80.1973" id="Directory" rx="2.5" ry="2.5" style="stroke:#181818;stroke-width:0.5;" width="220" x="632.5" y="231"/><ellipse cx="709.75" cy="247" fill="#ADD1B2" rx="11" ry="11" style="stroke:#181818;stroke-width:1.0;"/><path d="M707.4063,246.8438 Q707.4063,248.7188 707.9844,249.7344 Q708.5625,250.7344 709.7188,250.7344 Q711.0625,250.7344 711.7188,248.7188 L713.9844,249.1406 Q712.875,252.6719 709.7031,252.6719 Q707.3594,252.6719 706.1406,251.1875 Q704.9219,249.7031 704.9219,246.8438 Q704.9219,241.125 709.625,241.125 Q711.1719,241.125 712.2031,241.9375 Q713.25,242.75 713.75,244.3594 L711.4844,244.9063 Q711.25,244.0313 710.7656,243.5469 Q710.2813,243.0469 709.6563,243.0469 Q707.4063,243.0469 707.4063,246.8438 Z " fill="#000000"/><text fill="#000000" font-family="sans-serif" font-size="14" lengthAdjust="spacing" textLength="57" x="730.25" y="252.0825">Directory</text><line style="stroke:#181818;stroke-width:0.5;" x1="633.5" x2="851.5" y1="263" y2="263"/><line style="stroke:#181818;stroke-width:0.5;" x1="633.5" x2="851.5" y1="271" y2="271"/><text fill="#000000" font-family="sans-serif" font-size="14" lengthAdjust="spacing" textLength="179" x="638.5" y="288.1318">getChildrenNames(): string[]</text><text fill="#000000" font-family="sans-serif" font-size="14" lengthAdjust="spacing" textLength="208" x="638.5" y="304.2305">getChild(name): FilesystemNode</text></g><!--class RootDirectory--><g id="elem_RootDirectory"><rect codeLine="18" fill="#AAFFFF" height="48" id="RootDirectory" rx="2.5" ry="2.5" style="stroke:#181818;stroke-width:0.5;" width="119" x="521" y="432"/><ellipse cx="536" cy="448" fill="#ADD1B2" rx="11" ry="11" style="stroke:#181818;stroke-width:1.0;"/><path d="M533.6563,447.8438 Q533.6563,449.7188 534.2344,450.7344 Q534.8125,451.7344 535.9688,451.7344 Q537.3125,451.7344 537.9688,449.7188 L540.2344,450.1406 Q539.125,453.6719 535.9531,453.6719 Q533.6094,453.6719 532.3906,452.1875 Q531.1719,450.7031 531.1719,447.8438 Q531.1719,442.125 535.875,442.125 Q537.4219,442.125 538.4531,442.9375 Q539.5,443.75 540,445.3594 L537.7344,445.9063 Q537.5,445.0313 537.0156,444.5469 Q536.5313,444.0469 535.9063,444.0469 Q533.6563,444.0469 533.6563,447.8438 Z " fill="#000000"/><text fill="#000000" font-family="sans-serif" font-size="14" lengthAdjust="spacing" textLength="87" x="550" y="453.0825">RootDirectory</text><line style="stroke:#181818;stroke-width:0.5;" x1="522" x2="639" y1="464" y2="464"/><line style="stroke:#181818;stroke-width:0.5;" x1="522" x2="639" y1="472" y2="472"/></g><!--class File--><g id="elem_File"><rect codeLine="26" fill="#AAFFFF" height="128.4932" id="File" rx="2.5" ry="2.5" style="stroke:#181818;stroke-width:0.5;" width="294" x="191.5" y="392"/><ellipse cx="322.75" cy="408" fill="#ADD1B2" rx="11" ry="11" style="stroke:#181818;stroke-width:1.0;"/><path d="M320.4063,407.8438 Q320.4063,409.7188 320.9844,410.7344 Q321.5625,411.7344 322.7188,411.7344 Q324.0625,411.7344 324.7188,409.7188 L326.9844,410.1406 Q325.875,413.6719 322.7031,413.6719 Q320.3594,413.6719 319.1406,412.1875 Q317.9219,410.7031 317.9219,407.8438 Q317.9219,402.125 322.625,402.125 Q324.1719,402.125 325.2031,402.9375 Q326.25,403.75 326.75,405.3594 L324.4844,405.9063 Q324.25,405.0313 323.7656,404.5469 Q323.2813,404.0469 322.6563,404.0469 Q320.4063,404.0469 320.4063,407.8438 Z " fill="#000000"/><text fill="#000000" font-family="sans-serif" font-size="14" lengthAdjust="spacing" textLength="23" x="343.25" y="413.0825">File</text><line style="stroke:#181818;stroke-width:0.5;" x1="192.5" x2="484.5" y1="424" y2="424"/><text fill="#000000" font-family="sans-serif" font-size="14" lengthAdjust="spacing" textLength="282" x="197.5" y="441.1318">permissions: read-only | read-write | execute</text><line style="stroke:#181818;stroke-width:0.5;" x1="192.5" x2="484.5" y1="448.0986" y2="448.0986"/><text fill="#000000" font-family="sans-serif" font-size="14" lengthAdjust="spacing" textLength="82" x="197.5" y="465.2305">read(): string</text><text fill="#000000" font-family="sans-serif" font-size="14" lengthAdjust="spacing" textLength="204" x="197.5" y="481.3291">write(content) / append(content)</text><text fill="#000000" font-family="sans-serif" font-size="14" lengthAdjust="spacing" textLength="203" x="197.5" y="497.4277">execute(processProxy): number</text><text fill="#000000" font-family="sans-serif" font-size="14" lengthAdjust="spacing" textLength="223" x="197.5" y="513.5264">handleSignal(processProxy, signal)</text></g><!--class TextFile--><g id="elem_TextFile"><rect codeLine="35" fill="#AAFFFF" height="64.0986" id="TextFile" rx="2.5" ry="2.5" style="stroke:#181818;stroke-width:0.5;" width="102" x="477.5" y="648"/><ellipse cx="501.05" cy="664" fill="#ADD1B2" rx="11" ry="11" style="stroke:#181818;stroke-width:1.0;"/><path d="M498.7063,663.8438 Q498.7063,665.7188 499.2844,666.7344 Q499.8625,667.7344 501.0188,667.7344 Q502.3625,667.7344 503.0188,665.7188 L505.2844,666.1406 Q504.175,669.6719 501.0031,669.6719 Q498.6594,669.6719 497.4406,668.1875 Q496.2219,666.7031 496.2219,663.8438 Q496.2219,658.125 500.925,658.125 Q502.4719,658.125 503.5031,658.9375 Q504.55,659.75 505.05,661.3594 L502.7844,661.9063 Q502.55,661.0313 502.0656,660.5469 Q501.5813,660.0469 500.9563,660.0469 Q498.7063,660.0469 498.7063,663.8438 Z " fill="#000000"/><text fill="#000000" font-family="sans-serif" font-size="14" lengthAdjust="spacing" textLength="51" x="516.95" y="669.0825">TextFile</text><line style="stroke:#181818;stroke-width:0.5;" x1="478.5" x2="578.5" y1="680" y2="680"/><text fill="#000000" font-family="sans-serif" font-size="14" lengthAdjust="spacing" textLength="90" x="483.5" y="697.1318">content: string</text><line style="stroke:#181818;stroke-width:0.5;" x1="478.5" x2="578.5" y1="704.0986" y2="704.0986"/></g><!--class BinaryFile--><g id="elem_BinaryFile"><rect codeLine="40" fill="#AAFFFF" height="80.1973" id="BinaryFile" rx="2.5" ry="2.5" style="stroke:#181818;stroke-width:0.5;" width="208" x="234.5" y="640"/><ellipse cx="302.75" cy="656" fill="#ADD1B2" rx="11" ry="11" style="stroke:#181818;stroke-width:1.0;"/><path d="M300.4063,655.8438 Q300.4063,657.7188 300.9844,658.7344 Q301.5625,659.7344 302.7188,659.7344 Q304.0625,659.7344 304.7188,657.7188 L306.9844,658.1406 Q305.875,661.6719 302.7031,661.6719 Q300.3594,661.6719 299.1406,660.1875 Q297.9219,658.7031 297.9219,655.8438 Q297.9219,650.125 302.625,650.125 Q304.1719,650.125 305.2031,650.9375 Q306.25,651.75 306.75,653.3594 L304.4844,653.9063 Q304.25,653.0313 303.7656,652.5469 Q303.2813,652.0469 302.6563,652.0469 Q300.4063,652.0469 300.4063,655.8438 Z " fill="#000000"/><text fill="#000000" font-family="sans-serif" font-size="14" lengthAdjust="spacing" textLength="63" x="323.25" y="661.0825">BinaryFile</text><line style="stroke:#181818;stroke-width:0.5;" x1="235.5" x2="441.5" y1="672" y2="672"/><text fill="#000000" font-family="sans-serif" font-size="14" lengthAdjust="spacing" textLength="145" x="240.5" y="689.1318">executeFn: Executable</text><text fill="#000000" font-family="sans-serif" font-size="14" lengthAdjust="spacing" textLength="196" x="240.5" y="705.2305">handleSignalFn: SignalHandler</text><line style="stroke:#181818;stroke-width:0.5;" x1="235.5" x2="441.5" y1="712.1973" y2="712.1973"/></g><!--class DeviceFile--><g id="elem_DeviceFile"><rect codeLine="46" fill="#AAFFFF" height="80.1973" id="DeviceFile" rx="2.5" ry="2.5" style="stroke:#181818;stroke-width:0.5;" width="121" x="7" y="640"/><ellipse cx="32.35" cy="656" fill="#ADD1B2" rx="11" ry="11" style="stroke:#181818;stroke-width:1.0;"/><path d="M30.0063,655.8438 Q30.0063,657.7188 30.5844,658.7344 Q31.1625,659.7344 32.3188,659.7344 Q33.6625,659.7344 34.3188,657.7188 L36.5844,658.1406 Q35.475,661.6719 32.3031,661.6719 Q29.9594,661.6719 28.7406,660.1875 Q27.5219,658.7031 27.5219,655.8438 Q27.5219,650.125 32.225,650.125 Q33.7719,650.125 34.8031,650.9375 Q35.85,651.75 36.35,653.3594 L34.0844,653.9063 Q33.85,653.0313 33.3656,652.5469 Q32.8813,652.0469 32.2563,652.0469 Q30.0063,652.0469 30.0063,655.8438 Z " fill="#000000"/><text fill="#000000" font-family="sans-serif" font-size="14" lengthAdjust="spacing" textLength="66" x="48.65" y="661.0825">DeviceFile</text><line style="stroke:#181818;stroke-width:0.5;" x1="8" x2="127" y1="672" y2="672"/><text fill="#000000" font-family="sans-serif" font-size="14" lengthAdjust="spacing" textLength="109" x="13" y="689.1318">onRead: ReadFn</text><text fill="#000000" font-family="sans-serif" font-size="14" lengthAdjust="spacing" textLength="107" x="13" y="705.2305">onWrite: WriteFn</text><line style="stroke:#181818;stroke-width:0.5;" x1="8" x2="127" y1="712.1973" y2="712.1973"/></g><!--class ExecutionContext--><g id="elem_ExecutionContext"><rect codeLine="53" fill="#F1F1F1" height="128.4932" id="ExecutionContext" rx="2.5" ry="2.5" style="stroke:#181818;stroke-width:0.5;" width="235" x="615" y="616"/><ellipse cx="672.75" cy="632" fill="#ADD1B2" rx="11" ry="11" style="stroke:#181818;stroke-width:1.0;"/><path d="M670.4063,631.8438 Q670.4063,633.7188 670.9844,634.7344 Q671.5625,635.7344 672.7188,635.7344 Q674.0625,635.7344 674.7188,633.7188 L676.9844,634.1406 Q675.875,637.6719 672.7031,637.6719 Q670.3594,637.6719 669.1406,636.1875 Q667.9219,634.7031 667.9219,631.8438 Q667.9219,626.125 672.625,626.125 Q674.1719,626.125 675.2031,626.9375 Q676.25,627.75 676.75,629.3594 L674.4844,629.9063 Q674.25,629.0313 673.7656,628.5469 Q673.2813,628.0469 672.6563,628.0469 Q670.4063,628.0469 670.4063,631.8438 Z " fill="#000000"/><text fill="#000000" font-family="sans-serif" font-size="14" lengthAdjust="spacing" textLength="111" x="693.25" y="637.0825">ExecutionContext</text><line style="stroke:#181818;stroke-width:0.5;" x1="616" x2="849" y1="648" y2="648"/><line style="stroke:#181818;stroke-width:0.5;" x1="616" x2="849" y1="656" y2="656"/><text fill="#000000" font-family="sans-serif" font-size="14" lengthAdjust="spacing" textLength="223" x="621" y="673.1318">resolvePath(path): FilesystemNode</text><text fill="#000000" font-family="sans-serif" font-size="14" lengthAdjust="spacing" textLength="142" x="621" y="689.2305">changeDirectory(path)</text><text fill="#000000" font-family="sans-serif" font-size="14" lengthAdjust="spacing" textLength="164" x="621" y="705.3291">getFileStream(index): File</text><text fill="#000000" font-family="sans-serif" font-size="14" lengthAdjust="spacing" textLength="158" x="621" y="721.4277">setFileStream(index, file)</text><text fill="#000000" font-family="sans-serif" font-size="14" lengthAdjust="spacing" textLength="148" x="621" y="737.5264">createPipe(): [File, File]</text></g><!--class Process--><g id="elem_Process"><rect codeLine="66" fill="#F1F1F1" height="144.5918" id="Process" rx="2.5" ry="2.5" style="stroke:#181818;stroke-width:0.5;" width="129" x="307" y="1321"/><ellipse cx="342.7" cy="1337" fill="#ADD1B2" rx="11" ry="11" style="stroke:#181818;stroke-width:1.0;"/><path d="M340.3563,1336.8438 Q340.3563,1338.7188 340.9344,1339.7344 Q341.5125,1340.7344 342.6688,1340.7344 Q344.0125,1340.7344 344.6688,1338.7188 L346.9344,1339.1406 Q345.825,1342.6719 342.6531,1342.6719 Q340.3094,1342.6719 339.0906,1341.1875 Q337.8719,1339.7031 337.8719,1336.8438 Q337.8719,1331.125 342.575,1331.125 Q344.1219,1331.125 345.1531,1331.9375 Q346.2,1332.75 346.7,1334.3594 L344.4344,1334.9063 Q344.2,1334.0313 343.7156,1333.5469 Q343.2313,1333.0469 342.6063,1333.0469 Q340.3563,1333.0469 340.3563,1336.8438 Z " fill="#000000"/><text fill="#000000" font-family="sans-serif" font-size="14" lengthAdjust="spacing" textLength="51" x="361.3" y="1342.0825">Process</text><line style="stroke:#181818;stroke-width:0.5;" x1="308" x2="435" y1="1353" y2="1353"/><text fill="#000000" font-family="sans-serif" font-size="14" lengthAdjust="spacing" textLength="76" x="313" y="1370.1318">pid: number</text><text fill="#000000" font-family="sans-serif" font-size="14" lengthAdjust="spacing" textLength="84" x="313" y="1386.2305">ppid: number</text><text fill="#000000" font-family="sans-serif" font-size="14" lengthAdjust="spacing" textLength="84" x="313" y="1402.3291">pgid: number</text><line style="stroke:#181818;stroke-width:0.5;" x1="308" x2="435" y1="1409.2959" y2="1409.2959"/><text fill="#000000" font-family="sans-serif" font-size="14" lengthAdjust="spacing" textLength="66" x="313" y="1426.4277">start(args)</text><text fill="#000000" font-family="sans-serif" font-size="14" lengthAdjust="spacing" textLength="90" x="313" y="1442.5264">waitToFinish()</text><text fill="#000000" font-family="sans-serif" font-size="14" lengthAdjust="spacing" textLength="117" x="313" y="1458.625">sendSignal(signal)</text></g><!--class ProcessProxy--><g id="elem_ProcessProxy"><rect codeLine="87" fill="#F1F1F1" height="176.7891" id="ProcessProxy" rx="2.5" ry="2.5" style="stroke:#181818;stroke-width:0.5;" width="317" x="236" y="840"/><ellipse cx="346.75" cy="856" fill="#ADD1B2" rx="11" ry="11" style="stroke:#181818;stroke-width:1.0;"/><path d="M344.4063,855.8438 Q344.4063,857.7188 344.9844,858.7344 Q345.5625,859.7344 346.7188,859.7344 Q348.0625,859.7344 348.7188,857.7188 L350.9844,858.1406 Q349.875,861.6719 346.7031,861.6719 Q344.3594,861.6719 343.1406,860.1875 Q341.9219,858.7031 341.9219,855.8438 Q341.9219,850.125 346.625,850.125 Q348.1719,850.125 349.2031,850.9375 Q350.25,851.75 350.75,853.3594 L348.4844,853.9063 Q348.25,853.0313 347.7656,852.5469 Q347.2813,852.0469 346.6563,852.0469 Q344.4063,852.0469 344.4063,855.8438 Z " fill="#000000"/><text fill="#000000" font-family="sans-serif" font-size="14" lengthAdjust="spacing" textLength="87" x="367.25" y="861.0825">ProcessProxy</text><line style="stroke:#181818;stroke-width:0.5;" x1="237" x2="552" y1="872" y2="872"/><text fill="#000000" font-family="sans-serif" font-size="14" lengthAdjust="spacing" textLength="108" x="242" y="889.1318">pid = process.pid</text><line style="stroke:#181818;stroke-width:0.5;" x1="237" x2="552" y1="896.0986" y2="896.0986"/><text fill="#000000" font-family="sans-serif" font-size="14" lengthAdjust="spacing" textLength="207" x="242" y="913.2305">/stdin = context.getFileStream(0)</text><text fill="#000000" font-family="sans-serif" font-size="14" lengthAdjust="spacing" textLength="216" x="242" y="929.3291">/stdout = context.getFileStream(1)</text><text fill="#000000" font-family="sans-serif" font-size="14" lengthAdjust="spacing" textLength="214" x="242" y="945.4277">/stderr = context.getFileStream(2)</text><text fill="#000000" font-family="sans-serif" font-size="14" lengthAdjust="spacing" textLength="223" x="242" y="961.5264">resolvePath(path): FilesystemNode</text><text fill="#000000" font-family="sans-serif" font-size="14" lengthAdjust="spacing" textLength="142" x="242" y="977.625">changeDirectory(path)</text><text fill="#000000" font-family="sans-serif" font-size="14" lengthAdjust="spacing" textLength="305" x="242" y="993.7236">execute(executable, args, background): number</text><text fill="#000000" font-family="sans-serif" font-size="14" lengthAdjust="spacing" textLength="144" x="242" y="1009.8223">sendSignal(pid, signal)</text></g><!--class ProcessTable--><g id="elem_ProcessTable"><rect codeLine="77" fill="#F1F1F1" height="112.3945" id="ProcessTable" rx="2.5" ry="2.5" style="stroke:#181818;stroke-width:0.5;" width="209" x="470" y="1113"/><ellipse cx="526.75" cy="1129" fill="#ADD1B2" rx="11" ry="11" style="stroke:#181818;stroke-width:1.0;"/><path d="M524.4063,1128.8438 Q524.4063,1130.7188 524.9844,1131.7344 Q525.5625,1132.7344 526.7188,1132.7344 Q528.0625,1132.7344 528.7188,1130.7188 L530.9844,1131.1406 Q529.875,1134.6719 526.7031,1134.6719 Q524.3594,1134.6719 523.1406,1133.1875 Q521.9219,1131.7031 521.9219,1128.8438 Q521.9219,1123.125 526.625,1123.125 Q528.1719,1123.125 529.2031,1123.9375 Q530.25,1124.75 530.75,1126.3594 L528.4844,1126.9063 Q528.25,1126.0313 527.7656,1125.5469 Q527.2813,1125.0469 526.6563,1125.0469 Q524.4063,1125.0469 524.4063,1128.8438 Z " fill="#000000"/><text fill="#000000" font-family="sans-serif" font-size="14" lengthAdjust="spacing" textLength="87" x="547.25" y="1134.0825">ProcessTable</text><line style="stroke:#181818;stroke-width:0.5;" x1="471" x2="678" y1="1145" y2="1145"/><text fill="#000000" font-family="sans-serif" font-size="14" lengthAdjust="spacing" textLength="104" x="476" y="1162.1318">nextPid: number</text><line style="stroke:#181818;stroke-width:0.5;" x1="471" x2="678" y1="1169.0986" y2="1169.0986"/><text fill="#000000" font-family="sans-serif" font-size="14" lengthAdjust="spacing" textLength="197" x="476" y="1186.2305">startProcess(context, file, args)</text><text fill="#000000" font-family="sans-serif" font-size="14" lengthAdjust="spacing" textLength="109" x="476" y="1202.3291">waitToFinish(pid)</text><text fill="#000000" font-family="sans-serif" font-size="14" lengthAdjust="spacing" textLength="144" x="476" y="1218.4277">sendSignal(pid, signal)</text></g><!--class UnixShell--><g id="elem_UnixShell"><rect codeLine="103" fill="#F1F1F1" height="96.2959" id="UnixShell" rx="2.5" ry="2.5" style="stroke:#181818;stroke-width:0.5;" width="202" x="516.5" y="1345.5"/><ellipse cx="583.75" cy="1361.5" fill="#ADD1B2" rx="11" ry="11" style="stroke:#181818;stroke-width:1.0;"/><path d="M581.4063,1361.3438 Q581.4063,1363.2188 581.9844,1364.2344 Q582.5625,1365.2344 583.7188,1365.2344 Q585.0625,1365.2344 585.7188,1363.2188 L587.9844,1363.6406 Q586.875,1367.1719 583.7031,1367.1719 Q581.3594,1367.1719 580.1406,1365.6875 Q578.9219,1364.2031 578.9219,1361.3438 Q578.9219,1355.625 583.625,1355.625 Q585.1719,1355.625 586.2031,1356.4375 Q587.25,1357.25 587.75,1358.8594 L585.4844,1359.4063 Q585.25,1358.5313 584.7656,1358.0469 Q584.2813,1357.5469 583.6563,1357.5469 Q581.4063,1357.5469 581.4063,1361.3438 Z " fill="#000000"/><text fill="#000000" font-family="sans-serif" font-size="14" lengthAdjust="spacing" textLength="59" x="604.25" y="1366.5825">UnixShell</text><line style="stroke:#181818;stroke-width:0.5;" x1="517.5" x2="717.5" y1="1377.5" y2="1377.5"/><text fill="#000000" font-family="sans-serif" font-size="14" lengthAdjust="spacing" textLength="153" x="522.5" y="1394.6318">startupCommand: string</text><text fill="#000000" font-family="sans-serif" font-size="14" lengthAdjust="spacing" textLength="190" x="522.5" y="1410.7305">startupCommandArgs: string[]</text><line style="stroke:#181818;stroke-width:0.5;" x1="517.5" x2="717.5" y1="1417.6973" y2="1417.6973"/><text fill="#000000" font-family="sans-serif" font-size="14" lengthAdjust="spacing" textLength="38" x="522.5" y="1434.8291">start()</text></g><!--reverse link FilesystemNode to Directory--><g id="link_FilesystemNode_Directory"><path codeLine="16" d="M730.4067,149.9212 C739.2067,162.2512 736.5,161.06 741.5,175 C747.79,192.54 748.73,213.11 747.8,230.61 " fill="none" id="FilesystemNode-backto-Directory" style="stroke:#181818;stroke-width:1.0;"/><polygon fill="none" points="719.95,135.27,725.5229,153.4068,735.2904,146.4357,719.95,135.27" style="stroke:#181818;stroke-width:1.0;"/></g><!--link FilesystemNode to Directory--><g id="link_FilesystemNode_Directory"><path codeLine="23" d="M610.9151,140.8354 C603.1951,159.2954 602.73,173.63 612.5,191 C621.5,207 625.3665,213.238 640.5465,223.888 " fill="none" id="FilesystemNode-Directory" style="stroke:#181818;stroke-width:1.0;"/><polygon fill="#181818" points="613.23,135.3,606.0673,142.0599,611.3009,139.9129,613.4479,145.1464,613.23,135.3" style="stroke:#181818;stroke-width:1.0;"/><polygon fill="#181818" points="650.37,230.78,647.7556,224.0595,640.5465,223.888,643.1609,230.6085,650.37,230.78" style="stroke:#181818;stroke-width:1.0;"/><text fill="#000000" font-family="sans-serif" font-size="13" lengthAdjust="spacing" textLength="45" x="613.5" y="188.1938">children</text><text fill="#000000" font-family="sans-serif" font-size="13" lengthAdjust="spacing" textLength="5" x="602.7066" y="155.7642">*</text></g><!--link FilesystemNode to Directory--><g id="link_FilesystemNode_Directory"><path codeLine="24" d="M675.1,135.09 C680.73,153.45 687.62,173.31 695.5,191 C701.47,204.41 706.1208,213.2524 713.6008,225.6524 " fill="none" id="FilesystemNode-to-Directory" style="stroke:#181818;stroke-width:1.0;"/><polygon fill="#181818" points="716.7,230.79,715.4764,221.0175,714.1174,226.5086,708.6262,225.1497,716.7,230.79" style="stroke:#181818;stroke-width:1.0;"/><text fill="#000000" font-family="sans-serif" font-size="13" lengthAdjust="spacing" textLength="36" x="696.5" y="188.1938">parent</text><text fill="#000000" font-family="sans-serif" font-size="13" lengthAdjust="spacing" textLength="7" x="704.2978" y="220.3488">1</text></g><!--reverse link Directory to RootDirectory--><g id="link_Directory_RootDirectory"><path codeLine="20" d="M695.8192,324.738 C663.2792,361.498 627.69,401.69 600.88,431.97 " fill="none" id="Directory-backto-RootDirectory" style="stroke:#181818;stroke-width:1.0;"/><polygon fill="none" points="707.75,311.26,691.3266,320.7611,700.3119,328.7149,707.75,311.26" style="stroke:#181818;stroke-width:1.0;"/></g><!--link RootDirectory to RootDirectory--><g id="link_RootDirectory_RootDirectory"><path codeLine="21" d="M640.02,436.5 C659.5,436.6 675,443.1 675,456 C675,468.9 665.4999,475.3692 646.0199,475.4692 " fill="none" id="RootDirectory-to-RootDirectory" style="stroke:#181818;stroke-width:1.0;"/><polygon fill="#181818" points="640.02,475.5,649.0404,479.4537,645.0199,475.4743,648.9993,471.4539,640.02,475.5" style="stroke:#181818;stroke-width:1.0;"/><text fill="#000000" font-family="sans-serif" font-size="13" lengthAdjust="spacing" textLength="36" x="681" y="461.1938">parent</text></g><!--reverse link FilesystemNode to File--><g id="link_FilesystemNode_File"><path codeLine="33" d="M594.1189,149.0532 C534.7389,220.1232 450.46,321 391.15,391.98 " fill="none" id="FilesystemNode-backto-File" style="stroke:#181818;stroke-width:1.0;"/><polygon fill="none" points="605.66,135.24,589.5145,145.2061,598.7233,152.9002,605.66,135.24" style="stroke:#181818;stroke-width:1.0;"/></g><!--reverse link File to TextFile--><g id="link_File_TextFile"><path codeLine="38" d="M404.1429,533.6963 C439.9029,575.4863 473.59,614.84 501.84,647.85 " fill="none" id="File-backto-TextFile" style="stroke:#181818;stroke-width:1.0;"/><polygon fill="none" points="392.44,520.02,399.5841,537.5973,408.7017,529.7953,392.44,520.02" style="stroke:#181818;stroke-width:1.0;"/></g><!--reverse link File to BinaryFile--><g id="link_File_BinaryFile"><path codeLine="44" d="M338.5,538.02 C338.5,576.61 338.5,606.77 338.5,639.91 " fill="none" id="File-backto-BinaryFile" style="stroke:#181818;stroke-width:1.0;"/><polygon fill="none" points="338.5,520.02,332.5,538.02,344.5,538.02,338.5,520.02" style="stroke:#181818;stroke-width:1.0;"/></g><!--reverse link File to DeviceFile--><g id="link_File_DeviceFile"><path codeLine="50" d="M194.516,529.76 C175.396,541.71 171.9,545.52 155.5,560 C129.5,582.96 106.45,614.8 90.47,639.76 " fill="none" id="File-backto-DeviceFile" style="stroke:#181818;stroke-width:1.0;"/><polygon fill="none" points="209.78,520.22,191.336,524.672,197.696,534.848,209.78,520.22" style="stroke:#181818;stroke-width:1.0;"/></g><!--reverse link File to ExecutionContext--><g id="link_File_ExecutionContext"><path codeLine="61" d="M455.5772,522.9655 C508.8172,552.9655 567.1,585.8 620.37,615.82 " fill="none" id="File-backto-ExecutionContext" style="stroke:#181818;stroke-width:1.0;"/><polygon fill="#181818" points="450.35,520.02,456.2272,527.9231,454.706,522.4746,460.1545,520.9534,450.35,520.02" style="stroke:#181818;stroke-width:1.0;"/><text fill="#000000" font-family="sans-serif" font-size="13" lengthAdjust="spacing" textLength="66" x="548.5" y="573.1938">fileStreams</text><text fill="#000000" font-family="sans-serif" font-size="13" lengthAdjust="spacing" textLength="5" x="458.677" y="540.8972">*</text></g><!--reverse link RootDirectory to ExecutionContext--><g id="link_RootDirectory_ExecutionContext"><path codeLine="62" d="M599.8697,485.2908 C621.6697,517.1308 658.17,570.43 689.13,615.66 " fill="none" id="RootDirectory-backto-ExecutionContext" style="stroke:#181818;stroke-width:1.0;"/><polygon fill="#181818" points="596.48,480.34,598.264,490.0259,599.3047,484.4656,604.865,485.5064,596.48,480.34" style="stroke:#181818;stroke-width:1.0;"/><text fill="#000000" font-family="sans-serif" font-size="13" lengthAdjust="spacing" textLength="74" x="662.5" y="573.1938">rootDirectory</text><text fill="#000000" font-family="sans-serif" font-size="13" lengthAdjust="spacing" textLength="7" x="592.522" y="500.2886">1</text></g><!--reverse link Directory to ExecutionContext--><g id="link_Directory_ExecutionContext"><path codeLine="63" d="M745.0044,317.3928 C747.8544,375.4028 751.46,481.18 745.5,576 C744.69,588.95 743.3,602.77 741.73,615.93 " fill="none" id="Directory-backto-ExecutionContext" style="stroke:#181818;stroke-width:1.0;"/><polygon fill="#181818" points="744.71,311.4,741.1565,320.5854,744.9554,316.394,749.1468,320.1929,744.71,311.4" style="stroke:#181818;stroke-width:1.0;"/><text fill="#000000" font-family="sans-serif" font-size="13" lengthAdjust="spacing" textLength="84" x="749.5" y="461.1938">homeDirectory</text><text fill="#000000" font-family="sans-serif" font-size="13" lengthAdjust="spacing" textLength="7" x="737.4963" y="331.5067">1</text></g><!--reverse link Directory to ExecutionContext--><g id="link_Directory_ExecutionContext"><path codeLine="64" d="M791.4856,315.4594 C812.5856,336.9294 831.33,361.15 842.5,392 C861.87,445.49 859.45,465.7 842.5,520 C831.7,554.6 810.43,588.31 789.45,615.72 " fill="none" id="Directory-backto-ExecutionContext-1" style="stroke:#181818;stroke-width:1.0;"/><polygon fill="#181818" points="787.28,311.18,790.7355,320.4028,790.7847,314.7461,796.4413,314.7953,787.28,311.18" style="stroke:#181818;stroke-width:1.0;"/><text fill="#000000" font-family="sans-serif" font-size="13" lengthAdjust="spacing" textLength="92" x="856.5" y="461.1938">currentDirectory</text><text fill="#000000" font-family="sans-serif" font-size="13" lengthAdjust="spacing" textLength="7" x="787.117" y="331.2503">1</text></g><!--reverse link File to Process--><g id="link_File_Process"><path codeLine="75" d="M258.088,524.6031 C218.088,565.1831 181.5,617.4 181.5,679 C181.5,679 181.5,679 181.5,1170 C181.5,1249.11 251.83,1314.32 306.91,1353.26 " fill="none" id="File-backto-Process" style="stroke:#181818;stroke-width:1.0;"/><polygon fill="#181818" points="262.3,520.33,253.1333,523.9316,258.79,523.8909,258.8307,529.5476,262.3,520.33" style="stroke:#181818;stroke-width:1.0;"/><text fill="#000000" font-family="sans-serif" font-size="13" lengthAdjust="spacing" textLength="17" x="182.5" y="933.6938">file</text></g><!--link BinaryFile to ProcessProxy--><g id="link_BinaryFile_ProcessProxy"><path codeLine="76" d="M347.37,720.06 C354.67,752.16 363.9505,793.0192 373.2605,833.9892 " fill="none" id="BinaryFile-to-ProcessProxy" style="stroke:#181818;stroke-width:1.0;stroke-dasharray:7.0,7.0;"/><polygon fill="#181818" points="374.59,839.84,376.4962,830.1774,373.482,834.9643,368.6951,831.9501,374.59,839.84" style="stroke:#181818;stroke-width:1.0;"/><text fill="#000000" font-family="sans-serif" font-size="13" lengthAdjust="spacing" textLength="109" x="366.5" y="797.1938">&#171;executable uses&#187;</text></g><!--link ProcessTable to Process--><g id="link_ProcessTable_Process"><path codeLine="83" d="M516.2321,1233.8648 C489.5821,1263.0748 468.6548,1286.0184 440.1048,1317.2984 " fill="none" id="ProcessTable-Process" style="stroke:#181818;stroke-width:1.0;"/><polygon fill="#181818" points="524.32,1225,517.3211,1226.7364,516.2321,1233.8648,523.231,1232.1284,524.32,1225" style="stroke:#181818;stroke-width:1.0;"/><polygon fill="#181818" points="436.06,1321.73,445.0817,1317.7791,439.4307,1318.037,439.1729,1312.386,436.06,1321.73" style="stroke:#181818;stroke-width:1.0;"/><text fill="#000000" font-family="sans-serif" font-size="13" lengthAdjust="spacing" textLength="5" x="443.8138" y="1310.8945">*</text></g><!--reverse link ExecutionContext to ProcessProxy--><g id="link_ExecutionContext_ProcessProxy"><path codeLine="97" d="M641.0519,747.695 C601.1419,776.795 557.98,808.28 514.65,839.87 " fill="none" id="ExecutionContext-backto-ProcessProxy" style="stroke:#181818;stroke-width:1.0;"/><polygon fill="#181818" points="645.9,744.16,636.2712,746.2304,641.8599,747.1058,640.9845,752.6945,645.9,744.16" style="stroke:#181818;stroke-width:1.0;"/><text fill="#000000" font-family="sans-serif" font-size="13" lengthAdjust="spacing" textLength="43" x="585.5" y="797.1938">context</text></g><!--link ProcessProxy to Process--><g id="link_ProcessProxy_Process"><path codeLine="98" d="M390.15,1017.13 C385.78,1105.09 379.428,1232.9574 375.358,1314.7974 " fill="none" id="ProcessProxy-to-Process" style="stroke:#181818;stroke-width:1.0;"/><polygon fill="#181818" points="375.06,1320.79,379.5021,1311.9998,375.3083,1315.7962,371.512,1311.6024,375.06,1320.79" style="stroke:#181818;stroke-width:1.0;"/><text fill="#000000" font-family="sans-serif" font-size="13" lengthAdjust="spacing" textLength="46" x="386.5" y="1174.1938">process</text></g><!--link ProcessProxy to Process--><g id="link_ProcessProxy_Process"><path codeLine="100" d="M360.0779,1023.1267 C350.5479,1053.0267 343.24,1081.21 338.5,1113 C327.99,1183.44 337.5778,1252.5489 349.9878,1309.0989 " fill="none" id="ProcessProxy-Process" style="stroke:#181818;stroke-width:1.0;"/><polygon fill="#181818" points="361.9,1017.41,355.3558,1024.7703,360.3816,1022.1739,362.978,1027.1997,361.9,1017.41" style="stroke:#181818;stroke-width:1.0;"/><polygon fill="#181818" points="352.56,1320.82,355.1809,1314.1021,349.9878,1309.0989,347.3669,1315.8169,352.56,1320.82" style="stroke:#181818;stroke-width:1.0;"/><text fill="#000000" font-family="sans-serif" font-size="13" lengthAdjust="spacing" textLength="32" x="339.5" y="1174.1938">proxy</text></g><!--link ProcessProxy to ProcessTable--><g id="link_ProcessProxy_ProcessTable"><path codeLine="99" d="M460.76,1017.29 C484.92,1049.3 507.9149,1079.7814 529.3249,1108.1414 " fill="none" id="ProcessProxy-to-ProcessTable" style="stroke:#181818;stroke-width:1.0;"/><polygon fill="#181818" points="532.94,1112.93,530.7098,1103.337,529.9274,1108.9395,524.3249,1108.1571,532.94,1112.93" style="stroke:#181818;stroke-width:1.0;"/><text fill="#000000" font-family="sans-serif" font-size="13" lengthAdjust="spacing" textLength="28" x="502.5" y="1070.1938">table</text></g><!--reverse link ProcessTable to UnixShell--><g id="link_ProcessTable_UnixShell"><path codeLine="108" d="M586.2689,1230.8909 C593.4089,1267.8209 601.57,1310.09 608.38,1345.29 " fill="none" id="ProcessTable-backto-UnixShell" style="stroke:#181818;stroke-width:1.0;"/><polygon fill="#181818" points="585.13,1225,582.9111,1234.5957,586.0791,1229.9091,590.7657,1233.0771,585.13,1225" style="stroke:#181818;stroke-width:1.0;"/><text fill="#000000" font-family="sans-serif" font-size="13" lengthAdjust="spacing" textLength="78" x="596.5" y="1278.1938">processTable</text></g><!--reverse link ExecutionContext to UnixShell--><g id="link_ExecutionContext_UnixShell"><path codeLine="109" d="M731.5044,750.1787 C729.3744,851.9387 722.09,1052.25 696.5,1225 C692.76,1250.27 693.01,1257.28 683.5,1281 C674.63,1303.13 661.79,1326.05 649.79,1345.31 " fill="none" id="ExecutionContext-backto-UnixShell" style="stroke:#181818;stroke-width:1.0;stroke-dasharray:7.0,7.0;"/><polygon fill="#181818" points="731.63,744.18,727.4425,753.0943,731.5254,749.1789,735.4408,753.2617,731.63,744.18" style="stroke:#181818;stroke-width:1.0;"/><text fill="#000000" font-family="sans-serif" font-size="13" lengthAdjust="spacing" textLength="68" x="715.5" y="1070.1938">&#171;initializes&#187;</text></g><!--SRC=[hLRDRzem5B_dhx3OOL01RNUQ8eQqTKCxLLNBjaFLWqbUmIAn8zjfOMl_zpr_9N60JPEMGuYVV-_vVVsUKLl6AoffIMuftogeoFkB9CaAgXHPi0BKNcaehqKEv0sbZ_YGNmd1XzCIKgAqP7nj1JJBGAdblaBnXkKvSF922f5j8SSFBcH92miyfoibYbh33TMRoCGvKz-POgi2JQo4A83o8By5cjDeupMu-Pb9oBIG-vw7Qz1N6rRa4lWrEgk6et3O_KC469fOS3EE5m_e9M3sCfcqfuNZRuNGnrnuJLgfrOo1IRoSJEOzG4gmBi1rqh5pDgaHDpWRz6kJaio7sdVQ61vS3iWnmssPUwchG9PCAIQuIed4r4y4B_POHllzB9a6NC0ECYoZrJ0RROAjoCA6cU0Q3nkHSqAh2dZUI2p8snXMKfZskP5YjqSpl2vN82rYGtbUm1rRSrf4i35HLZWwKIaZ2p4kOQUFnEbTQTnsXfnwK0acFZ5EvVw84H_2WgVaY_qqVNhWkjbsNr-jL4Q7jSQRheOdbi6HumGtN4Y9UI-u5_qmkKw9_Ldmo7HhA0csdPjOtIiJ_qvxonAGbq-MbiCANuUKi3d3gDRGj9D31ZuP_9t6PYY7ZEUmyoRijZhS7fD7b3Zj3CKu4rW5fe_k3NHibHyCrGzSZfYGMZlEiZg5HH943CFExYx_eDPHsOWI_b4bgwMXsy7Wk76z72Z7ygZjgmF1kYTGcaezf7AjN0AVATDBiM2SgSrmv5FESy-Sm1KZneI6mwt3jbbS3fDEcq-dy-2a9Hn21hCPD3rEQWLgFX_4yIpjbhyaC2StnzpsM3SBTjhrmPYS20PJSH0Fohe383hyRE9xmqkJv6sJxJ0FkmefSPoD0t4nDzKX7uYVFbDSkNj9wPnntF1XJ6C6N8mQbAZrITXb2mCfJyBUZVuBISF0RSleqZucAvfjrrBKF8y7y5-JxX9bE-c046c8fWUUDArbxYDVfbCGLzLGfQ3dBiDUWrRcjnbqtpZRtMsWA7mPRU_LrPKeInp2qMqLRtt4ZFJ-BJYwcR1RgrqFWfDLPzc1JklfqVJCPjZZcj62_JHaIdu3]--></g></svg>